<?xml version="1.0" encoding="UTF-8" standalone="no"?><!DOCTYPE svg PUBLIC "-//W3C//DTD SVG 1.1//EN" "http://www.w3.org/Graphics/SVG/1.1/DTD/svg11.dtd"><svg width="100%" height="100%" viewBox="0 0 838 622" version="1.1" xmlns="http://www.w3.org/2000/svg" xmlns:xlink="http://www.w3.org/1999/xlink" xml:space="preserve" xmlns:serif="http://www.serif.com/" style="fill-rule:evenodd;clip-rule:evenodd;stroke-miterlimit:10;"><g><rect x="241.762" y="0" width="187.873" height="159.505" style="fill:url(#_Linear1);fill-rule:nonzero;"/><rect x="242.964" y="0" width="185.468" height="5.152" style="fill:#535461;"/><rect x="242.964" y="5.007" width="185.468" height="152.493" style="fill:#ededf4;"/><rect x="251.631" y="28.737" width="168.605" height="103.21" style="fill:#fff;"/><ellipse cx="246.414" cy="2.504" rx="0.897" ry="0.88" style="fill:#fa595f;"/><ellipse cx="249.115" cy="2.504" rx="0.897" ry="0.88" style="fill:#ffc74c;"/><ellipse cx="251.816" cy="2.504" rx="0.897" ry="0.88" style="fill:#85d459;"/><path d="M268.956,37.581l0,80.887l136.407,0" style="fill:none;fill-rule:nonzero;stroke:#535461;stroke-width:1.83px;"/><rect x="281.027" y="94.003" width="14.087" height="21.308" style="fill:#4285f4;fill-opacity:0.5;"/><rect x="305.169" y="75.063" width="14.087" height="40.248" style="fill:#4285f4;fill-opacity:0.7;"/><rect x="329.311" y="86.51" width="14.087" height="28.81" style="fill:#4285f4;fill-opacity:0.5;"/><rect x="353.462" y="68.749" width="14.087" height="46.562" style="fill:#4285f4;fill-opacity:0.8;"/><rect x="377.604" y="52.177" width="14.087" height="63.134" style="fill:#4285f4;"/><path d="M287.872,80.986l24.54,-21.707l24.151,20.519l23.735,-24.855l24.142,-9.869" style="fill:none;fill-rule:nonzero;stroke:#535461;stroke-width:1.83px;"/><ellipse cx="287.872" cy="80.986" rx="2.821" ry="2.767" style="fill:#4285f4;"/><ellipse cx="336.156" cy="79.408" rx="2.821" ry="2.767" style="fill:#4285f4;"/><ellipse cx="360.705" cy="54.943" rx="2.821" ry="2.767" style="fill:#4285f4;"/><ellipse cx="312.412" cy="58.889" rx="2.821" ry="2.767" style="fill:#4285f4;"/><ellipse cx="384.44" cy="45.074" rx="2.821" ry="2.767" style="fill:#4285f4;"/><ellipse cx="416.481" cy="504.675" rx="416.481" ry="116.69" style="fill:#f5f5f5;"/><path d="M505.427,279.932c0,0 11.507,-55.415 55.499,-50.281c0,0 30.348,2.05 36.629,21.553l0,43.096l-92.128,-14.368Z" style="fill:#535461;fill-rule:nonzero;"/><path d="M608.433,188.659c-5.162,-0.571 -10.055,-2.721 -14.865,-4.826c-8.084,-3.583 -16.363,-7.365 -22.615,-14.014c-9.398,-9.979 -12.811,-24.71 -19.425,-37.074c-2.447,-4.843 -5.724,-9.239 -9.684,-12.998c-3.278,-2.924 -7.075,-5.233 -11.202,-6.813c-8.109,-3.16 -17.087,-3.48 -25.409,-0.907l4.625,-0.753l-19.786,6.196c-2.46,0.78 -5.161,1.769 -6.41,4.209c-1.248,2.44 -0.453,5.932 1.323,8.164c1.776,2.231 4.273,3.528 6.697,4.78l2.081,1.07c-3.431,7.886 -2.431,16.98 2.636,23.966l0,19.893c-4.888,1.729 -10.106,2.379 -15.28,1.905c-1.423,0.464 -2.734,1.212 -3.848,2.195c-2.414,1.814 -5.476,5.443 -6.725,12.146c-2.1,11.303 -25.899,49.8 -28.378,53.755l-38.849,9.978l0.231,0.218l-0.749,0.19c0,0 0.305,0.281 0.786,0.78c-4.385,0.291 -12.099,0.272 -18.231,-2.558c-6.29,-2.902 -16.391,0.073 -22.015,2.177c-0.924,0.348 -1.538,1.223 -1.538,2.194c0,0.838 0.457,1.614 1.196,2.033c7.571,4.214 16.063,6.588 24.761,6.922c9.491,0.489 17.261,0.553 22.579,0.499c0.253,1.59 -0.18,3.214 -1.193,4.481l46.425,-6.513c1.359,-0.762 2.644,-1.646 3.838,-2.64c2.856,-2.224 5.316,-4.897 7.28,-7.91l9.999,-12.817c0.629,2.213 7.15,25.707 4.958,33.499l-2.34,8.636l13.671,1.387l0,-0.29l41.374,5.443l0,-0.907l0.074,0l0.176,-7.611l47.96,-1.515c0,0 8.325,-6.631 4.69,-17.235c-3.635,-10.604 -2.294,-41.345 -2.294,-41.345c-1.253,-8.524 -3.154,-16.945 -5.689,-25.191c10.598,-1.484 20.946,-4.346 30.774,-8.508c4.773,-2.014 9.592,-4.454 12.95,-8.708c-3.848,3.809 -9.398,4.989 -14.559,4.417Z" style="fill:url(#_Linear2);fill-rule:nonzero;"/><rect x="496.27" y="136.519" width="38.849" height="58.962" style="fill:#fe5858;"/><rect x="496.27" y="136.519" width="38.849" height="58.962" style="fill-opacity:0.1;"/><path d="M504.308,158.19c4.924,6.298 5.814,14.813 2.294,21.961c-5.939,12.518 -2.303,30.542 2.479,33.29c4.782,2.749 23.772,6.495 29.701,-1.506c5.929,-8 5.596,-31.113 3.644,-34.47c-1.951,-3.356 -16.418,-6.195 -15.798,-25.144l-22.32,5.869Z" style="fill:#f2b08d;fill-rule:nonzero;"/><path d="M501.82,181.475c0,0 7.621,50.108 33.428,15.62l-2.136,94.339l-46.665,-6.105l15.373,-103.854Z" style="fill-opacity:0.1;fill-rule:nonzero;"/><path d="M501.755,182.373c0,0 7.622,50.108 33.429,15.62l-2.137,94.339l-46.665,-6.105l15.373,-103.854Z" style="fill:#f1c413;fill-rule:nonzero;"/><path d="M530.244,270.77c0,0 -14.032,1.742 -23.744,-2.413c0,0 -18.5,4.908 -16.65,9.171c1.85,4.263 44.298,4.535 44.298,4.535l-3.904,-11.293Z" style="fill:#f2b08d;fill-rule:nonzero;"/><path d="M409.692,258.551c0,0 -12.201,1.923 -21.007,-2.14c-6.086,-2.812 -15.872,0.072 -21.33,2.113c-0.893,0.339 -1.485,1.185 -1.485,2.125c0,0.808 0.439,1.559 1.152,1.966c7.334,4.081 15.56,6.38 23.985,6.704c17.908,0.907 29.507,0.29 29.507,0.29l-10.822,-11.058Z" style="fill:#f2b08d;fill-rule:nonzero;"/><path d="M527.062,204.86l-7.103,67.126l6.585,-1.143c0,0 10.175,8.281 1.369,13.261l50.939,-1.542c0,0 8.066,-6.422 4.542,-16.736c-3.525,-10.313 -2.22,-40.057 -2.22,-40.057c0,0 -5.245,-37.645 -15.66,-39.613c0,0 -21.062,-4.046 -33.364,-17.471l-5.088,36.175Z" style="fill-opacity:0.1;fill-rule:nonzero;"/><path d="M527.978,204.951l-7.104,67.125l6.586,-1.143c0,0 10.175,8.282 1.369,13.262l50.939,-1.605c0,0 8.065,-6.423 4.541,-16.736c-3.524,-10.314 -2.22,-40.058 -2.22,-40.058c0,0 -5.244,-37.645 -15.66,-39.613c0,0 -21.061,-4.046 -33.364,-17.471l-5.087,36.239Z" style="fill:#39447a;fill-rule:nonzero;"/><path d="M507.925,174.173c0,0 -11.896,9.878 -26.964,8.345c0,0 -7.594,1.941 -9.73,13.498c-2.137,11.556 -27.685,52.394 -27.685,52.394l-37.924,9.715c0,0 10.924,10.16 6.151,16.019l44.972,-6.286c4.151,-2.424 7.657,-5.778 10.231,-9.787l10.174,-12.999c0,0 7.077,24.709 4.857,32.656l-2.267,8.372l13.246,1.352c0,0 0.648,-32.856 3.765,-45.619c1.35,-5.524 2.516,-11.075 3.367,-16.69c2.164,-14.332 5.55,-36.13 6.817,-39.006l0.99,-11.964Z" style="fill-opacity:0.1;fill-rule:nonzero;"/><path d="M508.433,173.774c0,0 -11.895,9.914 -26.963,8.345c0,0 -7.594,1.941 -9.731,13.498c-2.136,11.556 -27.694,52.403 -27.694,52.403l-37.924,9.715c0,0 10.924,10.16 6.151,16.019l44.973,-6.286c4.167,-2.427 7.686,-5.792 10.267,-9.815l10.175,-12.998c0,0 7.076,24.709 4.856,32.655l-2.266,8.373l13.218,1.306c0,0 0.647,-32.855 3.765,-45.618c1.35,-5.524 2.515,-11.076 3.366,-16.691c2.165,-14.332 5.55,-36.13 6.818,-39.005l0.989,-11.901Z" style="fill:#39447a;fill-rule:nonzero;"/><path d="M530.3,164.866c-2.174,-3.366 -4.033,-4.799 -3.82,-11.212l-22.311,5.878c2.64,3.382 4.178,7.467 4.412,11.72c1.581,0.49 3.208,0.822 4.856,0.989c6.096,0.625 12.229,-4.164 16.863,-7.375Z" style="fill-opacity:0.1;fill-rule:nonzero;"/><path d="M491.867,144.692c1.384,-13.096 13.351,-22.627 26.706,-21.269c13.355,1.358 23.073,13.094 21.688,26.19c-1.385,13.097 -13.351,22.627 -26.706,21.269c-13.355,-1.358 -23.073,-13.093 -21.688,-26.19Z" style="fill:#f2b08d;"/><path d="M481.368,215.827c0,0 4.403,6.35 1.702,10.132c-2.701,3.783 -3.32,9.615 -2.331,13.344" style="fill-opacity:0.1;fill-rule:nonzero;"/><path d="M552.536,214.92c0,0 8.131,36.583 5.929,39.985" style="fill-opacity:0.1;fill-rule:nonzero;"/><path d="M534.138,265.246c0,0 23.051,1.741 21.737,-3.375" style="fill-opacity:0.1;fill-rule:nonzero;"/><path d="M504.826,114.748c8.065,-2.48 16.761,-2.16 24.614,0.908c4.009,1.536 7.697,3.784 10.877,6.63c3.836,3.642 7.009,7.9 9.38,12.591c6.382,11.983 9.693,26.261 18.795,35.921c6.059,6.432 14.078,10.105 21.913,13.607c4.625,2.059 9.398,4.127 14.402,4.68c5.004,0.554 10.378,-0.589 14.106,-4.272c-3.219,4.118 -7.89,6.486 -12.515,8.436c-18.205,7.705 -38.127,10.695 -57.848,8.681c-5.55,-0.58 -11.1,-1.578 -16.243,-3.991c-3.7,-1.742 -7.289,-4.472 -8.75,-8.563c-3.367,-9.434 6.086,-19.449 4.31,-29.399c-0.925,-5.107 -4.708,-9.071 -8.926,-11.521c-4.218,-2.449 -8.926,-3.628 -13.431,-5.261c-4.733,-1.878 -9.345,-4.039 -13.81,-6.467c-2.349,-1.216 -4.773,-2.495 -6.474,-4.636c-1.702,-2.141 -2.544,-5.442 -1.277,-7.882c1.267,-2.441 3.829,-3.32 6.207,-4.082l19.174,-6.087" style="fill:#fe5858;fill-rule:nonzero;"/><path d="M746.097,300.46l-391.358,-31.813l-50.227,10.26l3.136,68.758l3.432,0.408l3.894,103.238l384.042,67.724l40.81,-33.862l0,-111.928l5.226,-3.002l1.045,-69.783Z" style="fill:#ededf4;fill-rule:nonzero;"/><path d="M746.625,300.46l-1.046,69.783l-42.382,19.494l-0.527,-72.859l43.955,-16.418Z" style="fill-opacity:0.05;fill-rule:nonzero;"/><path d="M739.826,373.318l0.518,109.805l-40.81,33.862l2.618,-127.248l37.674,-16.419Z" style="fill-opacity:0.05;fill-rule:nonzero;"/><path d="M311.598,352.173l390.868,46.78l0.204,-8.872l-391.359,-41.391l0.287,3.483Z" style="fill-opacity:0.05;fill-rule:nonzero;"/><path d="M739.826,377.345l0,-4.027l-38.72,16.763l0,8.89l38.72,-21.626Z" style="fill-opacity:0.05;fill-rule:nonzero;"/><path d="M303.985,278.907l50.226,-10.26l391.368,31.813l-43.955,16.418l-397.639,-37.971Z" style="fill:#f4f4f8;fill-rule:nonzero;"/><ellipse cx="785.982" cy="431.363" rx="30.127" ry="10.849" style="fill:#cd9494;"/><ellipse cx="785.982" cy="430.157" rx="15.373" ry="5.533" style="fill-opacity:0.05;"/><path d="M755.865,428.951c0,0 33.198,18.087 60.253,2.412c0,0 -3.7,62.699 -22.134,68.732l-24.596,0c0,0 -20.904,-42.208 -13.523,-71.144Z" style="fill:#ff7361;fill-rule:nonzero;"/><path d="M812.002,314.057c8.445,30.288 -27.583,116.572 -27.583,116.572c0,0 -75.848,-56.241 -84.256,-86.565c-1.264,-4.716 -1.903,-9.572 -1.903,-14.448c0,-31.19 26.172,-56.857 57.978,-56.857c25.833,0 48.697,16.931 55.764,41.298Z" style="fill:#4285f4;fill-rule:nonzero;"/><path d="M812.002,314.057c8.445,30.288 -27.583,116.572 -27.583,116.572c0,0 -75.848,-56.241 -84.256,-86.565c-1.264,-4.716 -1.903,-9.572 -1.903,-14.448c0,-31.19 26.172,-56.857 57.978,-56.857c25.833,0 48.697,16.931 55.764,41.298Z" style="fill-opacity:0.1;fill-rule:nonzero;"/><path d="M741.093,274.398c0,0 47.174,69.847 43.632,156.403" style="fill:none;fill-rule:nonzero;stroke:#535461;stroke-width:0.92px;"/><path d="M824.045,369.417c0,0 -42.789,-22.822 -37.332,61.438c0,0 35.695,-1.251 48.358,-29.807c5.097,-11.438 0.62,-24.96 -10.36,-31.277l-0.666,-0.354Z" style="fill:#4285f4;fill-rule:nonzero;"/><path d="M824.748,369.563c0,0 -5.55,43.74 -38.072,61.292" style="fill:none;fill-rule:nonzero;stroke:#535461;stroke-width:0.92px;"/><path d="M812.085,433.413c-1.248,14.423 -6.345,59.225 -21.792,64.269l-22.079,0c0.703,1.542 1.128,2.413 1.128,2.413l24.595,0c18.444,-6.033 22.135,-68.732 22.135,-68.732c-1.295,0.749 -2.627,1.433 -3.987,2.05Z" style="fill-opacity:0.05;fill-rule:nonzero;"/><ellipse cx="639.364" cy="133.19" rx="34.529" ry="33.862" style="fill:#535461;"/><ellipse cx="639.364" cy="133.19" rx="29.303" ry="28.737" style="fill:#ededf4;"/><ellipse cx="639.364" cy="133.19" rx="2.09" ry="2.05" style="fill:#535461;"/><path d="M651.925,111.637l-12.561,21.553" style="fill:none;fill-rule:nonzero;stroke:#535461;stroke-width:0.92px;stroke-linecap:round;"/><path d="M639.965,133.417l12.478,6.44" style="fill:none;fill-rule:nonzero;stroke:#535461;stroke-width:1.83px;stroke-linecap:round;"/><path d="M188.178,508.948c-3.589,-2.177 -5.485,-7.638 -6.475,-12.228l2.303,-0.771c0,0 -7.52,-76.396 -9.185,-80.46c-1.665,-4.064 -3.339,-18.695 -3.339,-18.695l-2.71,-79.68c12.478,-4.445 17.722,-13.044 19.489,-16.809c0.637,-1.108 1.17,-2.271 1.591,-3.474c-17.575,-21.126 -31.736,-78.011 -31.736,-78.011l2.377,-6.005l1.045,-2.639c3.488,14.423 19.129,20.863 19.129,20.863l-0.231,-2.114c0.619,0.3 0.999,0.463 1.054,0.481c3.284,2.386 6.771,3.629 10.036,2.449c10.249,-3.837 10.082,-21.425 10.027,-23.385l0,-1.814l-10.036,-36.574c-0.262,1.847 -0.693,3.669 -1.286,5.442c-0.583,-7.574 -1.323,-21.77 0.453,-29.834c1.971,-8.962 -17.297,-2.794 -22.301,7.774c-3.603,-4.757 -9.241,-7.636 -15.28,-7.802c-17.464,-0.734 -29.406,-11.556 -31.45,-13.506c-0.447,-1.852 -0.791,-3.727 -1.026,-5.615c6.899,-6.052 10.192,-15.157 8.722,-24.12c0.45,-0.198 0.888,-0.419 1.314,-0.662c6.197,-3.629 8.186,-11.403 8.574,-18.424l0,-1.142c0.093,-2.332 -0.453,-5.216 -2.775,-5.688c-3.043,-0.626 -5.272,3.864 -8.325,3.384c-0.936,-0.217 -1.78,-0.715 -2.414,-1.425c-2.1,-2.041 -3.515,-4.662 -5.596,-6.703c-3.108,-3.048 -7.529,-4.599 -11.932,-4.971c-4.415,-0.233 -8.841,0.173 -13.135,1.206c-2.365,0.379 -4.65,1.139 -6.761,2.25c-2.116,1.128 -3.61,3.125 -4.07,5.443c-0.058,0.493 -0.073,0.991 -0.047,1.487c0,0.753 0,1.524 0.065,2.277c-0.01,0.329 -0.047,0.657 -0.111,0.98c-0.444,2.131 -2.238,3.764 -4.153,4.88c-1.915,1.116 -4.051,1.896 -5.855,3.175c-2.882,2.175 -4.886,5.285 -5.652,8.772c-0.463,1.964 -0.674,3.979 -0.629,5.995c-0.023,1.82 0.085,3.639 0.324,5.443c0.762,6.072 2.501,11.987 5.152,17.525c0.873,1.948 1.999,3.777 3.349,5.443c1.981,2.117 4.257,3.949 6.761,5.443c1.018,0.671 2.229,1.36 3.395,0.988c0.339,-0.124 0.653,-0.308 0.925,-0.544c1.72,-1.397 2.303,-3.628 2.247,-5.86c0,0.236 0.074,0.481 0.102,0.708l0.167,0.072c0.119,1.467 0.119,2.942 0,4.409c-1.545,1.288 -12.025,9.851 -23.754,14.586c-8.035,3.266 -14.156,9.915 -16.649,18.088c-1.771,5.923 -4.42,11.559 -7.863,16.727c-1.674,2.44 -9.185,35.758 -14.198,42.261c-4.19,5.443 12.672,35.377 24.651,46.879l0.536,0.499c2.775,2.849 5.328,4.835 7.4,5.443c-0.296,-1.842 -0.451,-3.705 -0.463,-5.57c1.36,1.815 2.674,3.583 3.858,5.334c-0.491,2.567 -1.064,5.089 -1.73,7.547c-8.325,30.842 -3.339,31.694 -3.339,31.694c0,0 0.249,0.118 0.684,0.282c0.435,1.242 0.981,1.342 0.981,1.342c0,0 0.259,0.127 0.73,0.299c0.204,35.568 5.948,74.474 5.948,74.474c0,0 -5.013,48.765 -2.507,57.7c2.507,8.935 0,47.17 0,47.17l1.712,0.444c-0.925,4.826 -2.775,10.749 -6.725,14.187c-7.52,6.504 -15.031,17.879 -5.013,21.127c10.017,3.247 23.383,0.816 25.048,-8.944l0.832,-7.312l11.692,-4.063l-1.998,-13.607c3.293,-5.161 -0.509,-31.095 -0.509,-31.095c0,0 2.507,-8.944 5.846,-61.765c0.093,-1.488 0.204,-2.93 0.315,-4.363c0,-0.417 0.065,-0.826 0.102,-1.234c0.092,-1.082 0.191,-2.15 0.296,-3.202c0,-0.363 0.074,-0.735 0.111,-1.098c0.138,-1.351 0.286,-2.721 0.444,-4c0,-0.199 0.055,-0.399 0.074,-0.599c0.141,-1.118 0.286,-2.219 0.434,-3.301l0.158,-1.125c0.141,-0.986 0.289,-1.953 0.444,-2.903c0,-0.281 0.083,-0.562 0.129,-0.834c0.197,-1.21 0.401,-2.38 0.611,-3.511l0.148,-0.771c0.166,-0.901 0.339,-1.79 0.518,-2.667l0.203,-0.989c0.191,-0.919 0.386,-1.826 0.583,-2.721l0.111,-0.508c0.24,-1.043 0.481,-2.059 0.721,-3.048l0.194,-0.789c0.192,-0.756 0.382,-1.497 0.574,-2.222l0.222,-0.826c0.25,-0.907 0.499,-1.814 0.758,-2.721l0,-0.073c0.259,-0.907 0.528,-1.759 0.796,-2.612l0.231,-0.735c0.204,-0.635 0.407,-1.258 0.611,-1.869l0.222,-0.653c0.268,-0.789 0.536,-1.56 0.804,-2.304l0.121,-0.317c0.234,-0.641 0.469,-1.267 0.703,-1.878l0.24,-0.626c0.21,-0.544 0.419,-1.073 0.629,-1.587l0.194,-0.472c0.266,-0.647 0.53,-1.273 0.796,-1.878l0.176,-0.399c0.21,-0.478 0.419,-0.943 0.629,-1.397l0.24,-0.517c0.216,-0.46 0.428,-0.907 0.638,-1.342l0.13,-0.281c0.25,-0.517 0.499,-1.007 0.74,-1.479l0.203,-0.381l0.537,-1.025l0.212,-0.39l0.629,-1.143l0,-0.082l0.639,-1.097l0.185,-0.309c0.985,-1.713 2.1,-3.35 3.339,-4.898c1.238,-1.548 29.349,69.929 28.545,82.102c-0.805,12.173 5.013,39.005 5.013,39.005c0,0 2.507,8.944 3.339,14.632c0.713,4.835 5.041,23.748 6.318,29.326l0.203,0.908l0,0.099l0.056,0.245l0,0.218l-0.814,9.86l10.859,6.504c5.846,16.255 18.37,15.421 28.397,11.375c10.027,-4.046 -3.293,-18.741 -9.971,-22.759Zm-12.228,-330.575l-0.13,-0.109l0,-0.154l0.13,0.263Zm-109.398,72.813c-0.601,-0.49 -1.221,-1.034 -1.85,-1.615c-0.703,-0.726 -1.387,-1.497 -2.025,-2.313l0.444,0.472c0.647,0.598 1.295,1.161 1.914,1.66c0.095,-9.317 -0.288,-18.633 -1.147,-27.912c0.407,-0.671 0.777,-1.261 1.11,-1.751c1.143,10.447 1.662,20.952 1.554,31.459Z" style="fill:url(#_Linear3);fill-rule:nonzero;"/><path d="M89.778,126.822l0,0.2l-0.194,-0.282l0.194,0.082Zm-25.261,120.191c-3.357,-3.501 -6.373,-8.082 -5.984,-13.026c0.61,-7.738 4.292,-14.178 6.28,-17.144c1.148,10.559 1.67,21.175 1.564,31.794c-0.602,-0.49 -1.231,-1.043 -1.86,-1.624Zm111.507,-72.214l0.138,0.245l-0.129,-0.109l-0.009,-0.136Z" style="fill:url(#_Linear4);fill-rule:nonzero;"/><path d="M178.854,483.939c0,0 0.814,15.14 7.307,19.122c6.494,3.982 19.499,18.323 9.75,22.305c-9.75,3.983 -21.932,4.781 -27.62,-11.148l-10.564,-6.35l1.628,-19.956l19.499,-3.973Z" style="fill:#1a2246;fill-rule:nonzero;"/><path d="M68.374,488.701c0,0 0,15.14 -7.307,21.508c-7.307,6.368 -14.624,17.525 -4.875,20.709c9.75,3.184 22.746,0.798 24.374,-8.763l0.814,-7.166l11.368,-3.982l-3.247,-22.306l-21.127,0Z" style="fill:#1a2246;fill-rule:nonzero;"/><path d="M166.672,296.722l3.247,96.389c0,0 1.628,14.341 3.246,18.323c1.619,3.983 8.936,78.855 8.936,78.855l-23.56,7.964c0,0 -5.688,-24.691 -6.474,-30.27c-0.787,-5.579 -3.247,-14.341 -3.247,-14.341c0,0 -5.689,-26.306 -4.875,-38.234c0.814,-11.929 -27.62,-80.46 -27.62,-80.46c0,0 -17.056,19.956 -20.349,71.661c-3.293,51.704 -5.689,60.54 -5.689,60.54c0,0 4.061,27.884 0,31.068c-4.06,3.184 -24.373,-2.386 -24.373,-2.386c0,0 2.433,-37.436 0,-46.199c-2.433,-8.762 2.433,-56.557 2.433,-56.557c0,0 -15.401,-105.07 4.097,-125.825l84.479,-5.551l9.749,35.023Z" style="fill:#3b477b;fill-rule:nonzero;"/><g><path d="M177.226,490.289c0,0 -7.307,-74.881 -8.935,-78.864c-1.628,-3.982 -3.247,-18.323 -3.247,-18.323l-3.247,-96.38l-9.619,-34.733l4.782,-0.317l9.749,35.05l3.247,96.389c0,0 1.628,14.341 3.246,18.323c1.619,3.983 8.899,78.855 8.899,78.855l-23.56,7.964l-0.351,-1.533l19.036,-6.431Z" style="fill-rule:nonzero;"/></g><g><path d="M85.44,498.262c4.061,-3.184 0,-31.068 0,-31.068c0,0 2.433,-8.763 5.689,-60.54c3.256,-51.777 20.349,-71.661 20.349,-71.661c0,0 0.685,1.642 1.85,4.463c-5.059,8.4 -14.882,29.236 -17.26,67.234c-3.246,51.778 -5.688,60.54 -5.688,60.54c0,0 4.06,27.885 0,31.069c-1.268,0.997 -4.126,1.133 -7.446,0.861c0.9,-0.084 1.763,-0.393 2.506,-0.898Z" style="fill-rule:nonzero;"/></g><path d="M121.182,108.725c0,0 -6.475,28.674 11.368,43.813c17.842,15.14 -42.244,27.086 -52.798,14.342c-10.554,-12.745 7.307,-19.122 7.307,-19.122c0,0 8.935,-7.166 0,-28.674l34.123,-10.359Z" style="fill:#e0a17e;fill-rule:nonzero;"/><path d="M126.056,140.592l-21.117,22.305l-16.372,-21.371l-13.69,64.404l4.875,74.818c0,0 38.988,10.359 60.919,-9.561l-6.475,-69.302l-8.14,-61.293Z" style="fill:#f0f1f5;fill-rule:nonzero;"/><path d="M127.675,277.61l3.228,10.395c0,0 -38.174,6.35 -51.179,3.184l3.247,-11.148c0,0 35.769,8.717 44.704,-2.431Z" style="fill-opacity:0.1;fill-rule:nonzero;"/><path d="M127.675,276.013l3.228,10.359c0,0 -38.174,6.35 -51.179,3.184l3.247,-11.148c0,0 35.769,8.753 44.704,-2.395Z" style="fill:#1a2246;fill-rule:nonzero;"/><path d="M120.368,135.013c0,0 12.182,12.745 30.866,13.543c18.685,0.798 21.117,23.104 21.117,23.104l6.475,58.962c0,0 -15.438,-6.35 -18.684,-20.709l-4.061,10.359c0,0 13.81,55.759 30.867,76.477c0,0 -7.308,23.903 -43.049,20.71c0,0 -19.499,-8.763 -18.685,-31.069l-6.336,-34.923c-2.248,-12.268 -3.178,-24.733 -2.775,-37.191l4.265,-79.263Z" style="fill-opacity:0.1;fill-rule:nonzero;"/><path d="M121.182,133.417c0,0 12.181,12.744 30.866,13.543c18.685,0.798 21.117,23.122 21.117,23.122l6.475,58.961c0,0 -15.438,-6.349 -18.684,-20.709l-4.061,10.359c0,0 13.838,55.705 30.894,76.442c0,0 -7.307,23.902 -43.048,20.709c0,0 -19.499,-8.763 -18.685,-31.068l-6.382,-34.869c-2.249,-12.268 -3.178,-24.733 -2.775,-37.192l4.283,-79.298Z" style="fill:#293158;fill-rule:nonzero;"/><path d="M90.898,138.886c0,0 -9.093,10.341 -21.46,15.376c-7.822,3.231 -13.762,9.748 -16.159,17.734c-1.717,5.801 -4.295,11.325 -7.65,16.391c-1.628,2.386 -8.935,35.05 -13.81,41.427c-4.874,6.377 19.499,46.997 30.053,50.19c0,0 -4.061,-22.305 12.182,-24.691c0,0 -14.624,-8.763 -13.81,-19.122c0.814,-10.359 7.307,-18.323 7.307,-18.323c0,0 5.689,40.629 -2.432,70.899c-8.122,30.27 -3.247,31.068 -3.247,31.068c0,0 33.299,15.929 28.434,-58.961c-4.866,-74.891 -0.814,-102.766 -0.814,-102.766l1.406,-19.222Z" style="fill-opacity:0.1;fill-rule:nonzero;"/><path d="M60.253,278.399c0,0 -3.21,-17.625 7.492,-23.213c-0.351,10.55 -1.516,21.843 -4.236,31.975c-8.121,30.27 -3.247,31.069 -3.247,31.069c0.85,0.385 1.736,0.689 2.646,0.907c7.788,1.914 29.812,2.014 25.779,-59.869c-4.875,-74.881 -0.814,-102.766 -0.814,-102.766l3.247,-18.323c0,0 -10.943,9.434 -23.31,14.468c-7.821,3.232 -13.76,9.75 -16.159,17.734c-1.722,5.8 -4.299,11.322 -7.65,16.391c-1.628,2.386 -8.935,35.051 -13.81,41.428c-4.079,5.333 12.33,34.669 23.976,45.944c2.275,2.223 4.366,3.738 6.086,4.255Zm-0.453,-37.745c-0.894,-1.897 -1.294,-3.982 -1.166,-6.068c0.602,-7.638 4.302,-13.979 6.189,-16.773c0.675,-0.997 1.119,-1.542 1.119,-1.542c1.409,11.321 2.049,22.721 1.914,34.126c-2.839,-2.305 -6.271,-5.77 -8.056,-9.734l0,-0.009Z" style="fill:#293158;fill-rule:nonzero;"/><path d="M102.497,136.61c-4.053,0.005 -8.055,-0.895 -11.701,-2.631c-0.621,-4.575 -1.865,-9.047 -3.7,-13.298l34.113,-10.359c-1.248,6.424 -1.485,12.999 -0.703,19.493c-4.928,4.386 -11.354,6.81 -18.009,6.795Z" style="fill-opacity:0.1;fill-rule:nonzero;"/><ellipse cx="102.497" cy="108.725" rx="26.806" ry="26.288" style="fill:#e0a17e;"/><g><path d="M184.552,295.135c-17.057,-20.709 -30.867,-76.478 -30.867,-76.478l4.042,-10.359c0.351,1.535 0.853,3.032 1.499,4.472l-2.313,5.887c0,0 13.82,55.741 30.876,76.478c0,0 -6.669,21.77 -38.312,20.963c28.85,-0.744 35.075,-20.963 35.075,-20.963Z" style="fill-rule:nonzero;"/></g><path d="M188.603,181.221c0,0 -2.432,-23.104 0,-34.252c2.433,-11.149 -28.434,1.596 -21.931,16.727c6.503,15.13 12.996,23.902 12.996,23.902l8.935,-6.377Z" style="fill:#e0a17e;fill-rule:nonzero;"/><path d="M189.408,170.862l9.749,35.848c0,0 0.814,19.122 -9.749,23.104c-10.563,3.983 -23.559,-19.121 -23.559,-19.121l6.475,-33.454c0,0 13.837,15.13 17.084,-6.377Z" style="fill-opacity:0.1;fill-rule:nonzero;"/><path d="M189.408,172.458l9.749,35.849c0,0 0.814,19.122 -9.749,23.104c-10.563,3.982 -23.559,-19.122 -23.559,-19.122l6.475,-33.454c0,0 13.837,15.131 17.084,-6.377Z" style="fill:#293158;fill-rule:nonzero;"/><path d="M189.408,172.458l9.749,35.849c0,0 0.814,19.122 -9.749,23.104c-10.563,3.982 -23.559,-19.122 -23.559,-19.122l6.475,-33.454c0,0 13.837,15.131 17.084,-6.377Z" style="fill-opacity:0.02;fill-rule:nonzero;"/><path d="M63.509,287.161c-8.121,30.27 -3.247,31.069 -3.247,31.069c0.85,0.385 1.736,0.689 2.646,0.907c8.186,-16.156 9.573,-42.543 8.861,-65.312l0,-0.553c-0.488,-14.381 -1.744,-28.727 -3.765,-42.978c-0.925,0.789 -2.016,3.51 -3.154,7.519c0.676,-0.997 1.12,-1.542 1.12,-1.542c1.408,11.321 2.048,22.721 1.914,34.126c0.129,1.599 0.092,3.206 -0.111,4.798c-0.379,10.541 -1.544,21.834 -4.264,31.966Z" style="fill-opacity:0.1;fill-rule:nonzero;"/><path d="M59.809,272.43l0.925,1.143c3.115,3.856 5.828,8.007 8.103,12.391c4.865,10.368 21.792,-17.979 7.344,-26.306c-2.368,-1.352 -4.625,-2.576 -6.752,-3.628l-1.637,-0.826c-6.679,3.465 -7.974,11.575 -7.983,17.226Z" style="fill:#e0a17e;fill-rule:nonzero;"/><path d="M59.809,272.43l0.925,1.143c0,0 0.379,-14.84 8.704,-17.552l-1.637,-0.826c-6.688,3.474 -7.983,11.584 -7.992,17.235Z" style="fill-opacity:0.1;fill-rule:nonzero;"/><path d="M102.821,101.487c1.507,-0.508 3.089,-1.316 4.625,-0.817c0.7,0.276 1.331,0.697 1.85,1.234c2.118,1.959 4.208,4.236 7.048,4.844c1.755,0.262 3.546,0.185 5.272,-0.227c2.997,-0.517 6.077,-1.07 8.686,-2.594c6.031,-3.529 7.955,-11.185 8.325,-18.061c0.129,-2.313 -0.361,-5.306 -2.674,-5.787c-2.96,-0.617 -5.124,3.792 -8.112,3.311c-0.912,-0.215 -1.733,-0.703 -2.349,-1.397c-2.035,-1.996 -3.413,-4.536 -5.448,-6.577c-3.167,-2.9 -7.273,-4.624 -11.599,-4.871c-4.298,-0.23 -8.606,0.167 -12.784,1.18c-2.302,0.371 -4.524,1.116 -6.576,2.204c-2.069,1.116 -3.523,3.085 -3.959,5.361c-0.204,1.542 0.222,3.129 -0.093,4.644c-0.434,2.096 -2.173,3.683 -4.042,4.79c-1.868,1.106 -3.94,1.814 -5.698,3.111c-2.805,2.139 -4.752,5.182 -5.494,8.59c-0.723,3.39 -0.823,6.881 -0.296,10.305c0.729,5.948 2.409,11.745 4.976,17.18c0.849,1.905 1.944,3.694 3.256,5.325c1.923,2.08 4.138,3.882 6.577,5.352c0.99,0.653 2.174,1.334 3.302,0.971c0.34,-0.12 0.654,-0.301 0.925,-0.535c2.303,-1.887 2.525,-5.307 1.85,-8.164c-0.675,-2.858 -1.952,-5.624 -2.09,-8.563c-0.088,-0.825 0.079,-1.657 0.48,-2.386c0.482,-0.592 1.028,-1.129 1.628,-1.606c0.799,-0.878 1.426,-1.893 1.85,-2.993c1.231,-2.721 2.479,-5.579 2.775,-8.581c0.262,-2.459 -0.285,-4.936 -1.563,-7.067c2.537,2.24 6.134,2.941 9.352,1.824Z" style="fill-opacity:0.1;fill-rule:nonzero;"/><path d="M102.821,100.58c1.507,-0.508 3.089,-1.316 4.625,-0.817c0.7,0.276 1.331,0.697 1.85,1.234c2.118,1.959 4.208,4.236 7.048,4.844c1.755,0.262 3.546,0.185 5.272,-0.227c2.997,-0.517 6.077,-1.07 8.686,-2.594c6.031,-3.529 7.955,-11.185 8.325,-18.061c0.129,-2.313 -0.361,-5.306 -2.674,-5.787c-2.96,-0.617 -5.124,3.792 -8.112,3.311c-0.912,-0.215 -1.733,-0.703 -2.349,-1.397c-2.035,-1.996 -3.413,-4.536 -5.448,-6.577c-3.167,-2.901 -7.273,-4.624 -11.599,-4.871c-4.298,-0.23 -8.606,0.167 -12.784,1.179c-2.302,0.371 -4.524,1.117 -6.576,2.205c-2.069,1.116 -3.523,3.085 -3.959,5.361c-0.204,1.542 0.222,3.129 -0.093,4.644c-0.434,2.095 -2.173,3.683 -4.042,4.79c-1.868,1.106 -3.94,1.814 -5.698,3.111c-2.805,2.139 -4.752,5.182 -5.494,8.59c-0.723,3.39 -0.823,6.881 -0.296,10.305c0.729,5.948 2.409,11.745 4.976,17.18c0.849,1.904 1.944,3.694 3.256,5.325c1.923,2.08 4.138,3.882 6.577,5.352c0.99,0.653 2.174,1.333 3.302,0.971c0.34,-0.12 0.654,-0.302 0.925,-0.536c2.303,-1.886 2.525,-5.306 1.85,-8.164c-0.675,-2.857 -1.952,-5.624 -2.09,-8.563c-0.088,-0.824 0.079,-1.656 0.48,-2.385c0.482,-0.592 1.028,-1.13 1.628,-1.606c0.799,-0.878 1.426,-1.893 1.85,-2.993c1.231,-2.722 2.479,-5.579 2.775,-8.581c0.262,-2.459 -0.285,-4.936 -1.563,-7.067c2.537,2.24 6.134,2.941 9.352,1.824Z" style="fill:#463e3b;fill-rule:nonzero;"/></g><defs><linearGradient id="_Linear1" x1="0" y1="0" x2="1" y2="0" gradientUnits="userSpaceOnUse" gradientTransform="matrix(9.95934e-15,-159.505,162.648,9.76686e-15,335.693,159.505)"><stop offset="0" style="stop-color:#808080;stop-opacity:0.25"/><stop offset="0.54" style="stop-color:#808080;stop-opacity:0.12"/><stop offset="1" style="stop-color:#808080;stop-opacity:0.1"/></linearGradient><linearGradient id="_Linear2" x1="0" y1="0" x2="1" y2="0" gradientUnits="userSpaceOnUse" gradientTransform="matrix(1.15526e-14,-185.022,188.668,1.13293e-14,492.394,295.262)"><stop offset="0" style="stop-color:#808080;stop-opacity:0.25"/><stop offset="0.54" style="stop-color:#808080;stop-opacity:0.12"/><stop offset="1" style="stop-color:#808080;stop-opacity:0.1"/></linearGradient><linearGradient id="_Linear3" x1="0" y1="0" x2="1" y2="0" gradientUnits="userSpaceOnUse" gradientTransform="matrix(2.94759e-14,-472.074,481.378,2.89062e-14,114.494,538.746)"><stop offset="0" style="stop-color:#808080;stop-opacity:0.25"/><stop offset="0.54" style="stop-color:#808080;stop-opacity:0.12"/><stop offset="1" style="stop-color:#808080;stop-opacity:0.1"/></linearGradient><linearGradient id="_Linear4" x1="0" y1="0" x2="1" y2="0" gradientUnits="userSpaceOnUse" gradientTransform="matrix(7.6111e-15,-121.896,124.299,7.464e-15,117.334,248.637)"><stop offset="0" style="stop-color:#808080;stop-opacity:0.25"/><stop offset="0.54" style="stop-color:#808080;stop-opacity:0.12"/><stop offset="1" style="stop-color:#808080;stop-opacity:0.1"/></linearGradient></defs></svg>