<?xml version="1.0" encoding="UTF-8" standalone="no"?><!DOCTYPE svg PUBLIC "-//W3C//DTD SVG 1.1//EN" "http://www.w3.org/Graphics/SVG/1.1/DTD/svg11.dtd"><svg width="100%" height="100%" viewBox="0 0 877 651" version="1.1" xmlns="http://www.w3.org/2000/svg" xmlns:xlink="http://www.w3.org/1999/xlink" xml:space="preserve" xmlns:serif="http://www.serif.com/" style="fill-rule:evenodd;clip-rule:evenodd;stroke-miterlimit:10;"><g><path d="M453.309,106.231c-55.357,9.649 -110.636,5.512 -163.812,-0.505c-53.177,-6.016 -106.223,-13.873 -161.602,-11.505c-35.625,1.52 -75.298,8.801 -100.172,29.963c-23.944,20.355 -27.675,47.821 -27.721,72.616c-0.062,18.65 1.504,37.948 14.318,52.806c8.904,10.305 22.609,17.69 32.933,27.203c35.919,33.043 24.998,85.073 1.427,129.309c-11.06,20.754 -24.587,41.165 -32.119,62.407c-7.531,21.242 -8.532,44.004 4.949,61.326c13.325,17.082 39.161,26.795 66.137,31.812c54.713,10.193 115.67,3.864 174.648,-4.713c130.523,-18.986 259.703,-48.685 388.605,-78.312c47.693,-10.969 95.596,-21.986 141.544,-37.796c25.518,-8.801 51.501,-19.754 67.983,-36.804c20.942,-21.602 21.47,-51.149 1.288,-68.807c-33.864,-29.603 -110.511,-23.035 -136.704,-56.878c-14.411,-18.634 -8.137,-43.941 3.335,-66.295c24.595,-47.941 72.133,-95.306 65.975,-143.103c-4.251,-32.804 -36.68,-59.951 -80.146,-67.023c-45.56,-7.409 -104.073,6.64 -130.305,39.652c-26.969,34.011 -81.681,56.134 -130.561,64.647Z" style="fill:#4285f4;fill-opacity:0.1;fill-rule:nonzero;"/><rect x="67.504" y="84.052" width="322.428" height="156.649" style="fill:#565661;"/><rect x="74.935" y="95.573" width="308.699" height="133.606" style="fill:#dfe6f5;"/><path d="M96.668,160.068c-4.44,0.556 -8.782,1.752 -12.899,3.553l8.532,-8.369c0.617,-0.681 1.361,-1.225 2.188,-1.6c1.38,-0.545 2.97,-0.128 4.382,-0.609c2.272,-0.8 3.405,-3.616 5.67,-4.424c1.551,-0.544 3.242,0 4.871,-0.12c3.249,-0.224 5.825,-2.96 7.477,-5.865c1.652,-2.904 2.761,-6.16 4.878,-8.721c3.002,-3.64 7.656,-5.4 11.006,-8.712c1.49,-1.473 2.692,-3.201 4.119,-4.745c5.739,-5.935 14.345,-7.882 21.966,-4.968c1.011,0.527 2.118,0.829 3.25,0.888c0.892,-0.111 1.753,-0.402 2.536,-0.856l10.502,-5.193c5.88,1.945 11.427,4.834 16.435,8.561c0.778,0.707 1.727,1.185 2.746,1.384c2.808,0.232 4.002,-3.488 5.794,-5.729c2.451,-3.072 7.027,-3.552 10.634,-2.136c3.607,1.416 6.422,4.345 8.982,7.281c1.171,1.352 2.404,2.784 4.079,3.32c1.39,0.338 2.84,0.302 4.212,-0.104c8.104,-1.901 15.233,-6.86 19.98,-13.897c0.722,-1.088 1.614,-2.352 2.893,-2.336c0.619,0.06 1.212,0.284 1.722,0.648c4.535,2.715 8.754,5.959 12.573,9.665c2.901,2.816 5.616,5.928 9.098,7.929c3.483,2 8.028,2.656 11.355,0.408c-0.543,2.232 1.552,4.376 3.731,4.848c2.18,0.472 4.437,-0.176 6.655,-0.472c6.191,-0.793 12.429,1.114 17.203,5.257c10.105,1.152 18.892,7.75 23.06,17.313c1.644,3.913 3.824,9.153 7.911,8.505c1.373,-0.216 2.692,-1.16 4.041,-0.8c0.908,0.342 1.712,0.928 2.327,1.696c3.506,3.521 8.292,5.225 12.705,7.385c4.413,2.16 8.881,5.249 10.432,10.025c-3.824,0.552 -7.601,-1.04 -11.409,-1.704c-3.809,-0.664 -8.455,0.04 -10.277,3.56c-0.73,1.425 -0.97,3.241 -2.25,4.161c-0.875,0.506 -1.876,0.738 -2.877,0.664c-8.693,0.114 -17.281,-1.968 -25.014,-6.065c-5.243,7.865 -13.01,13.576 -21.927,16.122c-0.248,-3.472 -3.754,-6.001 -7.136,-6.049c-3.382,-0.048 -6.531,1.809 -9.137,4.001c-2.538,2.164 -4.743,4.713 -6.538,7.561c-1.497,2.4 -2.738,4.984 -4.771,6.88c-2.032,1.897 -5.212,2.889 -7.546,1.4c-1.296,-0.8 -2.126,-2.28 -3.398,-3.16c-2.893,-1.992 -7.314,-0.536 -9.858,-2.992c-1.838,-1.776 -1.869,-4.913 -3.63,-6.769c-2.226,-2.344 -6.205,-1.56 -8.695,0.464c-2.489,2.024 -4.149,4.969 -6.437,7.241c-5.934,5.897 -15.016,6.401 -23.269,6.561c0,-1.897 1.148,-3.545 1.955,-5.241c2.288,-4.8 1.659,-10.601 -0.443,-15.474c-2.102,-4.872 -5.514,-8.945 -8.857,-12.945c-3.77,4.144 -2.04,11.369 -5.43,15.874c-1.372,1.832 -3.451,2.992 -4.886,4.8c-1.792,2.224 -3.188,5.713 -5.98,5.497c-1.365,-0.104 -2.467,-1.16 -3.39,-2.2c-3.56,-4.001 -6.841,-9.057 -12.014,-10.097c-2.024,-0.409 -4.119,-0.129 -6.205,-0.313c-6.867,-0.844 -12.224,-6.675 -12.674,-13.793c-4.374,1.224 -9.059,2.272 -13.434,3.496c-1.217,0.344 -2.544,0.688 -3.723,0.216c-1.551,-0.632 -2.327,-2.44 -3.606,-3.552c-1.885,-1.6 -4.654,-1.536 -7.028,-1.008c-2.373,0.528 -4.785,1.424 -7.221,1.144c-0.503,-2.29 -0.629,-4.652 -0.372,-6.985l-8.687,-0.8c-1.145,-0.036 -2.276,-0.263 -3.351,-0.672c-0.811,-0.388 -1.559,-0.904 -2.218,-1.528c-2.14,-2.124 -3.934,-4.591 -5.313,-7.305Z" style="fill:#4285f4;fill-rule:nonzero;"/><path d="M118.068,154.364c1.07,-1.144 1.985,-2.473 3.265,-3.353c1.132,-0.692 2.348,-1.229 3.614,-1.6c9.308,-3.384 16.576,-10.777 24.006,-17.466c6.546,-5.896 13.426,-11.385 20.298,-16.866l2.614,1.969l-6.275,2.64c-0.605,0.256 -1.303,0.64 -1.334,1.312c0.028,0.428 0.204,0.831 0.497,1.136c1.613,2.144 3.428,4.433 5.995,5.033c1.226,0.288 2.707,0.248 3.467,1.28c0.303,0.511 0.514,1.075 0.621,1.664c0.992,3.488 4.056,5.881 7.066,7.777c5.944,3.731 12.389,6.541 19.127,8.337c-5.094,-0.16 -10.124,-1.21 -14.877,-3.105c-1.419,-0.534 -2.779,-1.223 -4.056,-2.056c-2.707,-1.824 -4.74,-4.536 -7.369,-6.472c-2.629,-1.937 -6.383,-2.969 -9.028,-1.057c-0.722,0.528 -1.42,1.281 -2.327,1.233c-0.908,-0.048 -1.551,-0.945 -2.327,-1.497c-1.978,-1.456 -4.739,-0.488 -6.857,0.744c-6.332,3.719 -11.402,9.361 -14.519,16.154c9.465,0.651 18.858,-2.15 26.526,-7.913c4.577,6.61 11.229,11.39 18.825,13.53c-1.117,1.4 -2.956,1.856 -4.592,2.512c-4.511,1.847 -8.035,5.618 -9.657,10.337c-1.265,-1.767 -2.178,-3.778 -2.683,-5.912c-2.516,1.456 -4.951,3.059 -7.291,4.8c2.226,-1.479 4.056,-3.513 5.321,-5.913c-4.024,-1.01 -8.267,-0.54 -11.992,1.329c-2.714,1.376 -5.227,3.52 -8.252,3.688c0.406,-3.448 -1.66,-6.733 -4.879,-7.753c-2.133,-0.616 -4.886,-0.36 -6.034,-2.32c-0.262,-0.562 -0.493,-1.139 -0.691,-1.728c-0.884,-2.041 -3.226,-3.065 -5.39,-3.001c-2.164,0.064 -4.204,0.976 -6.205,1.881c-2.855,1.296 -5.686,2.72 -8.586,3.888c1.31,-1.152 2.776,-1.984 3.979,-3.232Z" style="fill:#fff;fill-rule:nonzero;"/><path d="M167.933,182.423c3.851,0.464 7.754,-0.176 11.277,-1.849c1.924,-0.92 3.762,-2.152 5.848,-2.52c2.087,-0.368 4.608,0.488 5.298,2.56c2.505,-1.856 2.963,-5.544 4.972,-7.96c2.955,-3.561 8.687,-3.337 12.41,-0.641c3.723,2.697 5.801,7.201 7.353,11.57c1.171,3.328 2.218,6.888 4.653,9.361c2.436,2.472 6.911,3.272 9.184,0.616c-3.079,-4.242 -3.556,-9.943 -1.226,-14.666c0.528,-1.032 1.203,-2.072 1.164,-3.2c-0.086,-2.512 -3.103,-3.504 -5.042,-5.041c-4.196,-3.312 -3.645,-10.225 -7.042,-14.401c-1.8,-2.216 -4.848,-4.169 -4.328,-7.009c10.33,2.116 20.125,6.414 28.768,12.625c1.397,1.113 2.911,2.061 4.514,2.825c2.14,0.888 4.506,0.992 6.686,1.76c7.252,2.544 11.448,11.905 19.08,12.553c3.801,0.32 7.361,-1.696 10.913,-3.144c15.101,-6.153 32.142,-2.272 47.755,2.328c-5.429,-3.08 -13.1,-2.624 -16.544,-7.937c-1.179,-1.816 -1.698,-4.152 -3.335,-5.544c-3.211,-2.737 -7.904,-0.104 -12.053,0.304c-4.019,0.341 -7.924,-1.548 -10.238,-4.953c-1.117,-1.688 -1.823,-3.704 -3.289,-5.064c-2.149,-1.985 -5.321,-2.065 -8.206,-2.033l-13.535,0.128c-2.273,0 -4.832,-0.088 -6.352,-1.832c-0.498,-0.757 -1.047,-1.476 -1.645,-2.152c-0.892,-0.8 -2.133,-0.904 -3.288,-1.072c-3.774,-0.543 -7.422,-1.787 -10.766,-3.672c-0.658,-0.288 -1.205,-0.795 -1.551,-1.441c-0.869,-2.12 2.28,-3.296 4.041,-4.712c2.87,-2.32 2.234,-6.889 1.318,-10.521c2.38,-0.527 4.57,-1.73 6.322,-3.473c-3.258,-3.096 -6.834,-7.32 -5.43,-11.649c0.311,-0.952 0.481,-2.496 -0.488,-2.472c-1.304,2.921 -3.478,5.338 -6.205,6.897c-0.871,0.367 -1.639,0.953 -2.234,1.704c-0.985,1.6 0.039,4.04 -1.187,5.464c-0.443,0.453 -0.99,0.784 -1.59,0.961c-4.087,1.512 -9.121,1.824 -11.58,5.52c-0.829,1.504 -1.454,3.12 -1.854,4.801c-2.869,8.503 -9.749,14.937 -18.235,17.049c-1.411,0.336 -2.955,0.6 -3.948,1.689c-0.775,0.8 -1.039,1.944 -1.683,2.84c-1.287,1.8 -3.622,2.288 -5.646,3.088c-5.794,2.28 -9.354,7.497 -12.589,12.658c-1.365,2.176 -2.365,2.832 -4.607,3.848c-1.367,0.534 -2.623,1.332 -3.7,2.352c-0.209,0.24 -2.319,3.433 -2.14,3.457Z" style="fill:#fff;fill-rule:nonzero;"/><path d="M270.339,137.85c-2.563,1.378 -5.269,2.451 -8.067,3.2c1.332,0.393 2.609,0.96 3.801,1.688c-0.401,1.659 -1.344,3.126 -2.669,4.153c3.103,0.104 6.043,1.28 9.029,2.12c4.956,1.384 10.083,1.84 15.218,2.296l-6.981,-5.256c-1.024,-0.8 -2.125,-1.648 -2.381,-2.929c-0.103,-1.183 0.194,-2.367 0.837,-3.352c1.769,-3.448 3.917,-6.601 5.949,-9.865c-2.497,0.888 -5.778,0.152 -8.027,1.232c-1.404,0.672 -1.652,2.096 -2.49,3.289c-1.13,1.463 -2.575,2.635 -4.219,3.424Z" style="fill:#fff;fill-rule:nonzero;"/><path d="M312.579,145.899c-0.73,1.85 -1.781,3.548 -3.102,5.008c1.243,1.172 2.795,1.937 4.459,2.2c0.852,0.073 1.699,0.199 2.537,0.377c0.971,0.34 1.881,0.846 2.691,1.496c5.43,3.88 11.27,8.353 12.783,14.985c2.022,-1.168 4.602,-0.567 5.941,1.384c0.667,1.049 1.008,2.473 2.117,2.985c1.109,0.512 2.327,-0.16 3.204,-0.936c0.876,-0.776 1.745,-1.729 2.885,-2.001c0.711,-0.12 1.439,-0.095 2.141,0.072l10.323,1.721c-2.896,-3.017 -6.965,-4.526 -11.06,-4.105c-2.498,0.28 -5.104,1.256 -7.423,0.28c-2.319,-0.976 -3.513,-3.552 -5.344,-5.296c-2.327,-2.225 -5.685,-3.073 -8.004,-5.321c-1.932,-1.888 -2.956,-4.56 -4.708,-6.625c-1.901,-2.248 -4.608,-3.704 -6.275,-6.136c-0.675,-0.984 -1.21,-2.144 -2.203,-2.769c-1.745,-1.088 -5.329,-0.992 -7.314,-1.184c0.473,2.409 4.118,4.305 6.352,3.865Z" style="fill:#fff;fill-rule:nonzero;"/><path d="M133.216,125.289c1.752,0.124 3.51,0.156 5.266,0.096c0.171,0.007 0.34,-0.035 0.489,-0.12c0.152,-0.151 0.249,-0.352 0.271,-0.569l0.628,-2.864c0.027,-0.253 0.137,-0.49 0.311,-0.672c0.327,-0.188 0.727,-0.188 1.055,0c1.813,0.702 3.515,1.678 5.049,2.896c-0.662,-2.064 -1.251,-4.152 -1.769,-6.264l4.755,-0.864c-3.607,-0.888 -5.429,-0.44 -7.756,2.192c-1.365,1.512 -6.205,6.305 -8.299,6.169Z" style="fill:#fff;fill-rule:nonzero;"/><ellipse cx="228.718" cy="66.362" rx="4.32" ry="4.456" style="fill:#565661;"/><path d="M201.029,88.365l27.689,-22.003l27.977,22.003" style="fill:none;fill-rule:nonzero;stroke:#565661;stroke-width:0.79px;"/><path d="M233.147,147.387l0.342,0.224l0.713,-0.08l-1.055,-0.144Z" style="fill:url(#_Linear1);fill-rule:nonzero;"/><path d="M234.241,147.531l5.98,0.8c-1.913,-0.714 -3.954,-0.988 -5.98,-0.8Z" style="fill:url(#_Linear2);fill-rule:nonzero;"/><rect x="249.722" y="369.05" width="219.836" height="52.51" style="fill:#565661;"/><rect x="249.722" y="369.05" width="219.836" height="52.51" style="fill-opacity:0.1;"/><path d="M276.024,423.288l1.543,140.183l-21.143,55.062l-1.637,-195.245l21.237,0Z" style="fill:#bcbec9;fill-rule:nonzero;"/><path d="M252.042,379.131l214.034,1.328l0,39.109l-214.034,0l0,-40.437Z" style="fill:#565661;fill-rule:nonzero;"/><path d="M447.763,423.288l18.313,2.664l0,190.452l-18.313,-58.254l0,-134.862Z" style="fill:#bcbec9;fill-rule:nonzero;"/><rect x="473.033" y="371.155" width="103.151" height="226.104" style="fill:#efeff0;"/><rect x="481.286" y="377.435" width="86.645" height="173.802" style="fill:#565661;"/><rect x="481.286" y="377.435" width="86.645" height="173.802" style="fill-opacity:0.1;"/><rect x="481.286" y="380.996" width="86.645" height="38.572" style="fill:#565661;"/><rect x="481.286" y="423.288" width="86.645" height="81.929" style="fill:#565661;"/><rect x="481.286" y="510.273" width="86.645" height="81.929" style="fill:#565661;"/><ellipse cx="484.9" cy="604.619" rx="5.585" ry="7.361" style="fill:#565661;"/><ellipse cx="562.346" cy="604.971" rx="5.585" ry="7.361" style="fill:#565661;"/><path d="M248.947,618.533l7.477,0l-2.056,-245.418l-11.355,0l5.934,245.418Z" style="fill:#efeff0;fill-rule:nonzero;"/><path d="M466.076,371.155l0,245.249l6.957,0l0,-243.289l-6.957,-1.96Z" style="fill:#efeff0;fill-rule:nonzero;"/><path d="M254.733,417.167l0,8.785l211.343,0l0,-6.384l-211.343,-2.401Z" style="fill:#efeff0;fill-rule:nonzero;"/><path d="M269.059,354.665l267.932,0l38.937,13.297l0,7.713l-334.202,-2.656l0,-7.849l27.333,-10.505Z" style="fill:#efeff0;fill-rule:nonzero;"/><path d="M241.726,365.17l334.202,2.792l0,7.713l-334.202,-2.656l0,-7.849Z" style="fill:#bcbec9;fill-rule:nonzero;"/><path d="M330.17,436.633l-1.551,-0.24l0,-0.2c-0.046,-0.376 -0.101,-0.744 -0.155,-1.12c0.636,0.52 1.241,1.04 1.799,1.56l-0.093,0Z" style="fill:url(#_Linear3);fill-rule:nonzero;"/><path d="M296.462,560.174c1.008,-0.24 2.032,-0.44 3.056,-0.584c7.031,-1.033 14.203,0.057 20.647,3.137c-0.652,4.944 -1.296,10.057 0.085,14.833c0.962,3.361 2.893,6.401 3.304,9.905c2.11,0.375 3.84,1.952 4.46,4.065c0.298,0.917 0.447,1.88 0.442,2.848c-0.008,1.198 -0.154,2.39 -0.434,3.552c-0.195,1.919 -1.859,3.349 -3.723,3.201c-6.003,0.704 -11.89,-1.736 -17.475,-4.129l-10.859,-4.656c-1.272,-0.544 -2.552,-1.096 -3.769,-1.768c-2.31,-1.288 -4.361,-3.017 -6.042,-5.097c-0.346,-0.366 -0.591,-0.822 -0.706,-1.32c-0.202,-1.408 1.396,-2.248 2.412,-3.2c0.298,-0.291 0.558,-0.619 0.776,-0.976c1.202,-1.873 1.318,-4.457 2.039,-6.665c1.707,-5.241 6.981,-8.617 8.843,-13.73c0.1,-0.28 0.194,-0.56 0.271,-0.848" style="fill:#a26565;fill-rule:nonzero;"/><path d="M328.456,594.378c-0.008,1.198 -0.154,2.39 -0.434,3.552c-0.195,1.919 -1.859,3.349 -3.723,3.201c-6.003,0.704 -11.89,-1.736 -17.475,-4.129l-10.859,-4.656c-1.272,-0.544 -2.552,-1.096 -3.769,-1.768c-2.31,-1.288 -4.361,-3.017 -6.042,-5.097c-0.346,-0.366 -0.591,-0.822 -0.706,-1.32c-0.202,-1.408 1.396,-2.248 2.412,-3.2c0.298,-0.291 0.558,-0.619 0.776,-0.976c2.993,0.664 6.709,2.608 8.997,3.36c2.292,0.644 4.492,1.593 6.546,2.824c2.854,1.888 4.91,4.801 7.33,7.201c2.42,2.4 5.546,4.584 8.919,4.288c1.784,-0.277 3.504,-0.89 5.073,-1.808l2.955,-1.472Z" style="fill-opacity:0.1;fill-rule:nonzero;"/><path d="M315.744,480.678c0.412,1.483 -0.116,3.084 -1.319,4c-1.016,0.649 -2.327,0.561 -3.335,1.265c-1.249,0.904 -1.427,2.696 -1.644,4.248c-0.776,5.337 -3.343,10.177 -5.538,15.082c-2.195,4.904 -4.049,10.257 -3.242,15.585c0.55,3.617 2.272,7.473 0.659,10.729c-0.396,0.801 -0.985,1.513 -1.435,2.289c-2.211,3.808 -0.954,8.633 -1.039,13.065c0.032,0.492 -0.073,0.983 -0.303,1.416c-0.339,0.409 -0.756,0.741 -1.225,0.976c-1.594,1.209 -2.569,3.105 -2.645,5.145c-0.065,2.014 0.17,4.027 0.698,5.968c0.085,0.784 0.421,1.516 0.954,2.081c0.617,0.421 1.346,0.633 2.086,0.608c4.873,0.407 9.653,1.606 14.163,3.552c2.94,1.264 5.794,2.848 8.92,3.457c0.61,0.195 1.273,0.123 1.83,-0.201c0.394,-0.365 0.665,-0.85 0.776,-1.384c1.202,-4.08 2.42,-8.289 2.009,-12.529c-0.179,-1.824 -0.652,-3.608 -0.776,-5.433c-0.543,-7.2 4.181,-13.697 5.678,-20.802c0.675,-3.2 0.675,-6.512 1.155,-9.745c1.304,-8.857 6.035,-16.802 7.858,-25.562c0.253,-1.633 0.648,-3.24 1.179,-4.801c1.357,-3.392 4.498,-6.145 4.568,-9.817c0.043,-0.808 -0.164,-1.609 -0.59,-2.288c-0.731,-0.828 -1.702,-1.389 -2.769,-1.6c-4.234,-1.193 -8.544,-2.081 -12.898,-2.657c-1.987,-0.402 -4.013,-0.548 -6.035,-0.432c-2.624,0.319 -5.147,1.237 -7.384,2.689c-2.931,1.888 -1.008,2.344 -0.356,5.096Z" style="fill:#454b69;fill-rule:nonzero;"/><path d="M315.744,480.678c0.412,1.483 -0.116,3.084 -1.319,4c-1.016,0.649 -2.327,0.561 -3.335,1.265c-1.249,0.904 -1.427,2.696 -1.644,4.248c-0.776,5.337 -3.343,10.177 -5.538,15.082c-2.195,4.904 -4.049,10.257 -3.242,15.585c0.55,3.617 2.272,7.473 0.659,10.729c-0.396,0.801 -0.985,1.513 -1.435,2.289c-2.211,3.808 -0.954,8.633 -1.039,13.065c0.032,0.492 -0.073,0.983 -0.303,1.416c-0.339,0.409 -0.756,0.741 -1.225,0.976c-1.594,1.209 -2.569,3.105 -2.645,5.145c-0.065,2.014 0.17,4.027 0.698,5.968c0.085,0.784 0.421,1.516 0.954,2.081c0.617,0.421 1.346,0.633 2.086,0.608c4.873,0.407 9.653,1.606 14.163,3.552c2.94,1.264 5.794,2.848 8.92,3.457c0.61,0.195 1.273,0.123 1.83,-0.201c0.394,-0.365 0.665,-0.85 0.776,-1.384c1.202,-4.08 2.42,-8.289 2.009,-12.529c-0.179,-1.824 -0.652,-3.608 -0.776,-5.433c-0.543,-7.2 4.181,-13.697 5.678,-20.802c0.675,-3.2 0.675,-6.512 1.155,-9.745c1.304,-8.857 6.035,-16.802 7.858,-25.562c0.253,-1.633 0.648,-3.24 1.179,-4.801c1.357,-3.392 4.498,-6.145 4.568,-9.817c0.043,-0.808 -0.164,-1.609 -0.59,-2.288c-0.731,-0.828 -1.702,-1.389 -2.769,-1.6c-4.234,-1.193 -8.544,-2.081 -12.898,-2.657c-1.987,-0.402 -4.013,-0.548 -6.035,-0.432c-2.624,0.319 -5.147,1.237 -7.384,2.689c-2.931,1.888 -1.008,2.344 -0.356,5.096Z" style="fill-opacity:0.05;fill-rule:nonzero;"/><path d="M300.565,601.259l-6.616,0l-4.328,-91.722l-0.303,-5.216l5.623,-2.041l0.38,5.545l5.244,93.434Z" style="fill:#565661;fill-rule:nonzero;"/><path d="M295.321,507.825l-5.7,1.712l-0.303,-5.216l5.623,-2.041l0.38,5.545Z" style="fill-opacity:0.1;fill-rule:nonzero;"/><path d="M383.58,620.661l-10.913,1.36l-50.276,-117.7l-13.558,-1.025l-23.812,7.169l-4.63,140.135l-10.913,0l4.297,-145.255l-26.131,0.688l-46.631,119.74l-9.92,0l49.043,-139.942l1.892,-5.393l73.087,-2.584l18.22,10.537l0.233,0.608l50.012,131.662Z" style="fill:#565661;fill-rule:nonzero;"/><path d="M333.568,488.999c-15.707,4.88 -32.011,10.209 -32.011,10.209c0,0 -14.868,5.353 -21.166,0c-0.795,-0.639 -1.682,-1.144 -2.63,-1.496c0.818,0.602 1.7,1.104 2.63,1.496l-40.255,-13.385l1.884,-5.385l73.095,-2.584l18.22,10.537l0.233,0.608Z" style="fill-opacity:0.1;fill-rule:nonzero;"/><path d="M259.224,465.772l29.761,-6.848c0,0 71.109,13.649 76.399,19.106c0,0 -56.885,11.937 -63.167,16.001c-6.283,4.065 -43.66,8.585 -42.993,-28.259Z" style="fill:#fff;fill-rule:nonzero;"/><path d="M246.426,389.052c-2.327,7.609 -8.679,14.466 -16.412,14.794c-0.563,0.068 -1.133,-0.038 -1.637,-0.304c-0.969,-0.624 -0.993,-2.088 -0.597,-3.2c0.395,-1.113 1.086,-2.113 1.194,-3.281c0.024,-0.238 0.008,-0.479 -0.046,-0.712c-0.202,-0.952 -0.954,-1.8 -1.838,-1.6c1.241,-1.024 1.528,-2.876 0.659,-4.248c-0.351,-0.409 -0.668,-0.849 -0.946,-1.313c-0.644,-1.36 0.356,-2.888 0.775,-4.344c0.861,-3.2 -1.326,-6.401 -1.504,-9.737c-0.156,-2.984 1.31,-5.793 1.675,-8.753c0.582,-4.801 -1.73,-9.401 -2.001,-14.194c-0.186,-3.344 0.613,-6.656 1.504,-9.881c0.776,-2.88 1.653,-5.792 1.707,-8.8c0,-2.185 -0.365,-4.345 -0.466,-6.521c-0.16,-1.989 0.19,-3.988 1.017,-5.793c0.536,-1.061 1.452,-1.867 2.551,-2.248c2.544,-0.88 4.212,0.488 4.584,2.976c0.621,4.233 0.264,8.553 1.078,12.802c0.754,3.973 1.895,7.856 3.405,11.593c1.373,3.376 3.041,6.641 4.096,10.137c0.794,2.882 1.362,5.825 1.698,8.801c1.04,7.993 1.854,16.218 -0.496,23.826Z" style="fill:#4285f4;fill-rule:nonzero;"/><path d="M423.083,582.705c-1.984,2.884 -5.071,4.76 -8.478,5.152c-3.366,0.432 -6.864,-0.44 -10.13,0.512c-1.026,0.175 -1.901,0.87 -2.327,1.849c-0.08,0.65 -0.13,1.305 -0.147,1.96c-0.38,2.136 -3.102,2.616 -5.22,2.6l-8.733,-0.056c-1.815,0 -3.824,-0.104 -5.127,-1.4c-1.276,-1.457 -1.31,-3.688 -0.078,-5.185c0.694,-0.245 1.164,-0.923 1.164,-1.68c0,-0.974 -0.778,-1.776 -1.722,-1.776c-0.19,0 -0.379,0.033 -0.559,0.096c-0.159,-1.176 -0.104,-2.373 0.163,-3.528c0,-3.345 0.776,-8.945 3.056,-11.562c2.8,-3.256 7.656,-7.464 11.883,-8.336c2.896,-0.566 5.887,0.32 8.051,2.384c2.001,1.92 3.459,4.928 6.205,5.264c1.497,0.192 2.939,-0.536 4.421,-0.8c3.441,-0.457 6.81,1.379 8.384,4.569c0.376,0.791 0.638,1.634 0.776,2.504c0.402,2.594 -0.164,5.251 -1.582,7.433Z" style="fill:#a26565;fill-rule:nonzero;"/><path d="M423.083,582.705c-1.984,2.884 -5.071,4.76 -8.478,5.152c-3.366,0.432 -6.864,-0.44 -10.13,0.512c-1.026,0.175 -1.901,0.87 -2.327,1.849c-0.08,0.65 -0.13,1.305 -0.147,1.96c-0.38,2.136 -3.102,2.616 -5.22,2.6l-8.733,-0.056c-1.815,0 -3.824,-0.104 -5.127,-1.4c-1.276,-1.457 -1.31,-3.688 -0.078,-5.185c5.042,-0.216 9.998,0 15.024,-1.072c2.04,-0.424 4.049,-0.984 6.112,-1.28c4.468,-0.656 9.222,-0.096 13.325,-2.048c3.421,-1.6 5.872,-4.857 7.322,-8.489c0.419,2.597 -0.132,5.263 -1.543,7.457Z" style="fill-opacity:0.1;fill-rule:nonzero;"/><path d="M400.039,570.055c-3.103,2.481 -6.74,4.417 -10.65,4.625c-3.909,0.208 -8.058,-1.6 -9.974,-5.105c-2.8,-5.144 -0.318,-12.297 -3.746,-17.017c-1.071,-1.481 -2.614,-2.529 -3.747,-3.961c-1.132,-1.432 -1.784,-3.584 -0.775,-5.104c-1.218,0.48 -2.506,-0.736 -2.862,-2.033c-0.357,-1.296 -0.132,-2.688 -0.349,-4c-0.567,-3.48 -3.879,-5.713 -5.469,-8.801c-1.59,-3.088 -1.372,-7.097 -1.551,-10.753c-0.396,-8.907 -3.612,-17.439 -9.152,-24.283c-1.055,-1.296 -2.405,-2.616 -4.049,-2.552c0.287,-2.928 -1.606,-5.728 -4.057,-7.201c-2.45,-1.472 -5.367,-1.968 -8.206,-2.256c-28.644,-2.912 -58.49,8.073 -85.838,-1.168c-7.609,-2.568 -14.947,-6.865 -19.6,-13.601c-3.661,-5.178 -5.142,-11.668 -4.103,-17.986l0,-0.112c1.078,-5.681 3.986,-7.081 8.803,-9.673c5.56,-3.033 11.372,-5.547 17.366,-7.513c11.635,-3.753 24.161,-5.105 36.168,-2.352c5.608,1.296 11.014,3.44 16.629,4.696c2.211,0.496 4.437,0.848 6.678,1.144c3.483,0.448 6.981,0.744 10.487,1.16c11.21,1.332 22.25,3.894 32.933,7.641c3.979,1.392 7.958,2.984 11.378,5.505c5.476,4.097 9.129,10.3 10.13,17.202c0.326,2.352 0.334,4.8 0.83,7.08c0.47,1.917 1.093,3.79 1.861,5.601c6.628,16.902 12.044,34.284 16.203,52.005c0.236,1.317 0.674,2.586 1.296,3.761c0.992,1.656 2.699,2.768 3.699,4.424c2.327,3.905 0.086,9.353 2.149,13.418c0.713,1.408 1.9,2.52 2.614,3.928c2.311,4.561 -1.125,10.105 -5.096,13.281Z" style="fill:#454b69;fill-rule:nonzero;"/><path d="M360.404,478.126c1.102,-0.9 2.054,-1.981 2.816,-3.201c0.764,-1.224 1.068,-2.697 0.853,-4.136c0.613,3.691 -0.508,7.471 -3.017,10.177c-1.947,2.056 -5.6,4.073 -8.447,3.368c0.404,-2.352 5.988,-4.608 7.795,-6.208Z" style="fill-opacity:0.1;fill-rule:nonzero;"/><path d="M311.943,438.25c-0.475,1.74 -1.772,3.12 -3.444,3.664c-1.653,0.522 -3.385,0.73 -5.111,0.616l-1.551,0c-20.353,-0.464 -40.922,-5.121 -60.802,-0.68c-2.396,0.51 -4.746,1.224 -7.027,2.136c-2.905,1.182 -5.626,2.799 -8.074,4.801l0,-0.112c1.078,-5.681 3.987,-7.081 8.803,-9.673c5.555,-3.007 11.359,-5.497 17.343,-7.441c11.635,-3.753 24.161,-5.105 36.168,-2.352c5.608,1.296 11.014,3.44 16.629,4.696c2.211,0.496 4.437,0.848 6.678,1.144c0.435,1.004 0.57,2.118 0.388,3.201Z" style="fill-opacity:0.1;fill-rule:nonzero;"/><path d="M311.943,437.105c-0.471,1.745 -1.769,3.129 -3.444,3.673c-1.653,0.522 -3.385,0.729 -5.111,0.608l-1.551,0c-20.353,-0.464 -40.922,-5.121 -60.802,-0.68c-2.395,0.51 -4.745,1.222 -7.027,2.128c-3.043,1.252 -5.881,2.979 -8.415,5.121c-0.595,-1.686 -1.187,-3.374 -1.777,-5.065c-0.713,-2.016 1.552,-2.464 1.986,-4.272c0.287,-1.225 -0.202,-2.617 -0.45,-3.921c-0.063,-0.319 -0.105,-0.642 -0.124,-0.968c-0.14,-2.888 0.861,-4.552 3.157,-6.113c6.81,-4.64 15.117,-7.824 22.889,-10.217c4.131,-1.347 8.4,-2.201 12.72,-2.544c6.112,-0.368 12.216,0.8 18.165,2.28c7.314,1.865 14.551,4.329 21.035,8.273c3.188,1.936 6.283,4.345 7.981,7.745c0.684,1.189 0.955,2.584 0.768,3.952Z" style="fill:#a26565;fill-rule:nonzero;"/><path d="M246.426,389.052c-2.327,7.609 -8.679,14.466 -16.412,14.794c-0.563,0.068 -1.133,-0.038 -1.637,-0.304c-0.969,-0.624 -0.993,-2.088 -0.597,-3.2c0.395,-1.113 1.086,-2.113 1.194,-3.281c0.024,-0.238 0.008,-0.479 -0.046,-0.712c4.103,-5.968 8.082,-12.001 9.656,-19.066c0.319,-1.216 0.416,-2.483 0.287,-3.736c-0.209,-1.44 -0.915,-2.745 -1.303,-4.137c-0.682,-2.464 -0.364,-5.072 -0.17,-7.624c0.813,-11.252 -1.006,-22.542 -5.306,-32.916c-1.047,-2.496 -2.241,-5.024 -2.606,-7.689c0.537,-1.061 1.452,-1.867 2.552,-2.248c2.544,-0.88 4.212,0.488 4.584,2.976c0.621,4.233 0.264,8.553 1.078,12.802c0.753,3.973 1.894,7.856 3.405,11.593c1.373,3.376 3.041,6.641 4.095,10.137c0.795,2.882 1.362,5.825 1.699,8.801c1.063,7.977 1.877,16.202 -0.473,23.81Z" style="fill-opacity:0.1;fill-rule:nonzero;"/><path d="M311.943,437.105c-0.471,1.745 -1.769,3.129 -3.444,3.673c-1.653,0.522 -3.385,0.729 -5.111,0.608l-1.551,0c-6.624,-4.538 -14.592,-6.522 -22.493,-5.601c-2.529,0.312 -5.058,0.92 -7.586,0.68c-5.111,-0.48 -9.253,-4.272 -13.806,-6.696c-10.577,-5.387 -23.331,-3.602 -32.134,4.496l-0.443,0.4c-0.063,-0.319 -0.105,-0.642 -0.124,-0.968c-0.139,-2.888 0.861,-4.552 3.157,-6.113c6.81,-4.64 15.117,-7.824 22.889,-10.217c4.132,-1.347 8.4,-2.201 12.72,-2.544c6.112,-0.368 12.216,0.8 18.165,2.28c7.315,1.865 14.551,4.329 21.035,8.273c3.188,1.936 6.283,4.345 7.982,7.745c0.683,1.201 0.946,2.608 0.744,3.984Z" style="fill-opacity:0.1;fill-rule:nonzero;"/><path d="M329.34,349.464l-0.108,0.288c-1.738,4.649 -4.933,8.577 -6.981,13.106c-2.583,5.736 -3.219,12.169 -3.793,18.474c-0.496,5.4 -0.985,10.833 -0.589,16.249c0.993,13.346 7.314,26.003 9.005,39.092c0.416,3.023 0.523,6.083 0.318,9.129c-0.14,1.929 -0.481,4.001 -1.722,5.425c-1.241,1.424 -3.653,1.984 -4.987,0.616c0.597,-1.176 1.202,-2.344 1.807,-3.52c-3.545,-2.841 -8.881,-0.8 -13.023,-2.577c-1.823,-0.8 -3.281,-2.24 -4.809,-3.528c-7.042,-5.906 -16.106,-8.637 -25.122,-7.569c-2.529,0.32 -5.057,0.928 -7.586,0.688c-5.111,-0.488 -9.253,-4.272 -13.806,-6.696c-10.576,-5.385 -23.328,-3.604 -32.134,4.488c-1.086,1.04 -2.544,2.256 -3.878,1.6c-0.516,-0.325 -0.933,-0.794 -1.203,-1.352c-5.08,-8.953 -1.341,-20.498 4.088,-29.219c5.429,-8.721 12.619,-16.762 14.853,-26.843c0.323,-1.216 0.42,-2.483 0.287,-3.736c-0.209,-1.44 -0.915,-2.745 -1.303,-4.137c-0.682,-2.464 -0.364,-5.072 -0.17,-7.624c0.813,-11.252 -1.006,-22.542 -5.306,-32.916c-1.241,-2.984 -2.714,-6.009 -2.714,-9.249c0,-5.104 3.544,-9.337 6.476,-13.441c3.374,-4.721 6.205,-9.945 10.479,-13.826c4.049,-3.688 9.912,-5.944 14.923,-4.072c8.515,-2.124 17.278,-2.997 26.03,-2.593c3.025,0.145 6.151,0.473 8.803,1.985c2.839,1.6 4.879,4.448 7.671,6.152c2.04,1.256 4.39,1.849 6.608,2.729c6.128,2.473 11.187,7.148 14.241,13.161c3.102,6.201 3.878,13.329 4.561,20.274c0.667,6.489 1.287,13.29 -0.916,19.442Z" style="fill:#4285f4;fill-rule:nonzero;"/><path d="M317.869,397.581c0.993,13.346 7.314,26.003 9.005,39.092c-3.382,-2.976 -8.074,-5.92 -8.718,-9.353c-0.698,-3.712 -2.932,-8.576 -3.304,-12.329c-0.373,-3.752 2.179,-8.337 -0.497,-10.913c-1.303,-1.256 2.164,-0.904 0.892,-2.192c-2.862,-2.873 -3.568,-7.297 -3.746,-11.401c-0.302,-7.265 0.59,-14.61 -0.706,-21.755c-0.775,-4.408 -2.396,-8.609 -3.692,-12.889c-1.504,-4.985 -2.59,-10.089 -3.676,-15.202c-1.069,-4.545 -1.846,-9.158 -2.327,-13.809c-0.334,-4.001 -0.179,-8.241 1.551,-11.889c1.73,-3.649 5.228,-6.609 9.153,-6.553c13.123,0.176 10.858,18.53 13.744,27.011c1.155,3.376 2.714,6.64 3.343,10.161c0.228,1.38 0.353,2.776 0.372,4.176c-1.738,4.649 -4.933,8.577 -6.981,13.106c-2.583,5.736 -3.219,12.169 -3.793,18.474c-0.527,5.416 -1.016,10.849 -0.62,16.265Z" style="fill-opacity:0.1;fill-rule:nonzero;"/><path d="M326.401,335.191c1.155,3.376 2.714,6.64 3.343,10.161c1.047,5.896 -0.574,12.161 1.186,17.874c0.459,1.219 0.842,2.467 1.148,3.736c0.303,1.816 -0.046,3.672 -0.046,5.521c0,2.976 0.907,5.856 1.714,8.713c2.727,9.704 4.533,19.658 5.391,29.723c0.128,2.705 0.541,5.387 1.233,8.001c0.326,0.885 0.605,1.788 0.838,2.704c0.208,1.222 0.257,2.468 0.147,3.704c-0.21,3.921 -0.636,7.857 -0.21,11.761c0.427,3.905 1.808,7.865 4.654,10.482c-2.544,0.568 -5.235,1.136 -7.717,0.296c-3.491,-1.177 -5.585,-4.801 -7.361,-8.097c-2.249,-4.209 -10.797,-8.001 -11.681,-12.73c-0.69,-3.704 -2.924,-8.569 -3.296,-12.329c-0.373,-3.76 2.171,-8.329 -0.504,-10.905c-1.296,-1.256 2.171,-0.912 0.892,-2.192c-2.855,-2.873 -3.561,-7.297 -3.739,-11.409c-0.302,-7.257 0.582,-14.602 -0.706,-21.747c-0.775,-4.408 -2.397,-8.609 -3.692,-12.897c-1.505,-4.977 -2.59,-10.081 -3.676,-15.202c-1.072,-4.544 -1.849,-9.158 -2.327,-13.809c-0.334,-4.001 -0.186,-8.249 1.551,-11.897c1.738,-3.649 5.236,-6.601 9.152,-6.553c13.07,0.248 10.82,18.61 13.706,27.091Z" style="fill:#4285f4;fill-rule:nonzero;"/><path d="M289,338.319c1.226,1.48 2.8,3.104 4.654,2.816c-0.291,0.476 -0.906,0.627 -1.373,0.336c-0.445,-0.304 -0.801,-0.727 -1.032,-1.224l-2.652,-4.616c-0.349,-0.6 -2.754,-4.097 -3.343,-2.08c-0.233,0.856 3.149,4.048 3.746,4.768Z" style="fill-opacity:0.1;fill-rule:nonzero;"/><path d="M287.573,349.832c-0.076,-1.508 -0.693,-2.934 -1.73,-4c-0.932,-0.872 -2.02,-1.549 -3.203,-1.992c-2.909,-1.233 -6.352,-2.225 -9.509,-2.065c1.148,1.729 4.832,2.761 6.678,3.737c2.616,1.392 5.204,2.832 7.764,4.32Z" style="fill-opacity:0.1;fill-rule:nonzero;"/><path d="M295.833,382.604c-0.535,4.096 -3.785,7.2 -7.073,9.601c-3.289,2.4 -6.981,4.464 -9.129,7.937c-1.49,2.4 -2.157,5.184 -3.421,7.688c-1.396,2.761 -3.483,5.081 -5.15,7.673c-1.668,2.592 -2.971,5.689 -2.459,8.761c0.015,0.286 0.144,0.552 0.357,0.736c0.324,0.142 0.698,0.099 0.985,-0.112c3.382,-1.824 4.716,-5.992 6.135,-9.601c1.49,-3.642 3.168,-7.2 5.026,-10.657c0.838,-1.6 1.761,-3.344 3.32,-4.232c1.067,-0.459 2.16,-0.852 3.273,-1.177c1.578,-0.746 2.963,-1.868 4.041,-3.272c4.233,-5.209 6.445,-11.857 6.205,-18.65c-0.046,-1.432 -0.124,-8.329 -2.21,-6.201c-2.087,2.129 0.457,8.721 0.1,11.506Z" style="fill-opacity:0.1;fill-rule:nonzero;"/><path d="M300.945,225.491c6.67,3 12.41,9.601 12.2,17.082c-0.178,7.857 -6.554,15.258 -4.359,22.786c1.272,4.369 5.104,7.297 8.137,10.617c11.549,12.61 11.525,34.62 -0.062,47.205c-4.437,4.801 -10.138,8.217 -14.83,12.802c-16.544,16.081 -17.25,43.9 -8.393,65.495c-6.786,1.513 -13.703,2.318 -20.647,2.4c-3.25,0.04 -7.229,-0.568 -8.408,-3.696c-1.085,-2.889 0.776,-6.793 -1.365,-8.929c-1.008,-1 -2.521,-1.136 -3.878,-1.369c-8.733,-1.456 -15.9,-8.648 -19.173,-17.121c-3.273,-8.473 -3.103,-18.01 -1.226,-26.923c1.334,-6.441 3.421,-13.53 0.326,-19.29c-3.878,-7.249 -15.032,-10.305 -14.861,-18.594c0.14,-6.793 7.904,-10.097 12.309,-15.146c8.129,-9.297 4.258,-23.722 4.243,-36.252c0,-11.025 3.738,-22.402 11.696,-29.747c11.836,-11.017 34.632,-7.441 48.291,-1.32Z" style="fill:#a26565;fill-rule:nonzero;"/><path d="M240.539,318.333c-3.405,-6.337 -12.348,-9.473 -14.427,-15.706c-1.04,1.455 -1.624,3.202 -1.675,5.009c-0.171,8.289 10.967,11.345 14.861,18.602c1.278,2.569 1.816,5.462 1.551,8.337c1.226,-5.569 2.304,-11.378 -0.31,-16.242Z" style="fill-rule:nonzero;"/><path d="M309.678,255.102c1.396,-4.2 3.421,-8.441 3.522,-12.801c0.014,-0.472 0.001,-0.945 -0.039,-1.416c-1.559,4.792 -3.948,9.489 -3.483,14.217Z" style="fill-rule:nonzero;"/><path d="M241.873,277.481c2.668,-8.697 0.365,-19.482 0.357,-29.131c0,-1.169 0.046,-2.345 0.132,-3.513c-0.919,3.729 -1.383,7.562 -1.381,11.409c0.016,6.889 1.187,14.362 0.892,21.235Z" style="fill-rule:nonzero;"/><path d="M318.156,314.997c-4.437,4.8 -10.138,8.216 -14.83,12.801c-8.377,8.137 -12.682,19.282 -13.76,31.099c2.001,-8.801 6.042,-16.906 12.519,-23.202c4.654,-4.561 10.393,-7.961 14.83,-12.802c5.276,-5.931 8.342,-13.607 8.648,-21.65c-1.339,5.141 -3.883,9.864 -7.407,13.754Z" style="fill-rule:nonzero;"/><path d="M274.286,395.669c-3.249,0 -7.228,-0.576 -8.407,-3.704c-1.086,-2.881 0.775,-6.785 -1.365,-8.929c-1.009,-1 -2.529,-1.136 -3.879,-1.368c-8.725,-1.449 -15.892,-8.649 -19.165,-17.114c-2.412,-6.257 -2.932,-13.082 -2.327,-19.818c-0.062,0.264 -0.117,0.528 -0.171,0.8c-1.846,8.913 -2.04,18.458 1.226,26.931c3.265,8.473 10.44,15.665 19.165,17.113c1.381,0.232 2.901,0.376 3.879,1.369c2.164,2.144 0.279,6.048 1.365,8.929c1.179,3.128 5.158,3.744 8.407,3.704c6.944,-0.082 13.861,-0.887 20.648,-2.4c-0.958,-2.334 -1.794,-4.719 -2.506,-7.145c-5.57,1.021 -11.212,1.567 -16.87,1.632Z" style="fill-rule:nonzero;"/><path d="M299.688,360.777c1.916,1.489 3.995,-4.184 2.808,-5.6c-0.318,0.368 -3.103,5.392 -2.808,5.6Z" style="fill-opacity:0.1;fill-rule:nonzero;"/><path d="M307.856,463.46c2.257,-0.8 4.653,-1.6 6.127,-3.52c1.218,-1.544 2.218,-7.673 -0.357,-4.737c-2.187,2.505 -3.219,5.841 -5.77,8.257Z" style="fill-opacity:0.1;fill-rule:nonzero;"/><path d="M330.837,457.036c-0.271,1.888 -0.775,3.848 -2.071,5.208c-0.24,0.256 -0.775,0.416 -0.845,0.072c1.447,-0.794 2.792,-1.773 4.002,-2.912c2.622,-2.68 2.979,-9.281 -1.016,-11.033c-0.039,2.896 0.357,5.752 -0.07,8.665Z" style="fill-opacity:0.1;fill-rule:nonzero;"/><path d="M358.426,445.138c0,0 -22.012,-8.921 -29.97,-8.001c-7.958,0.921 9.013,13.858 9.013,13.858l10.145,7.057c0,0 6.205,-2.401 6.616,-2.585c0.411,-0.184 4.196,-10.329 4.196,-10.329Z" style="fill:#454b69;fill-rule:nonzero;"/><path d="M206.97,349.432c0,0 16.536,-9.889 38.362,2.4c21.826,12.29 25.464,84.609 25.464,84.609c0,0 -8.927,73.688 25.495,57.302c0,0 62.826,-20.122 69.116,-15.689c0,0 5.957,0 -5.949,2.728c-11.906,2.728 -57.877,17.738 -57.877,17.738c0,0 -14.869,5.361 -21.167,0c-6.298,-5.361 -24.145,0.688 -26.464,-36.164c-1.535,-23.223 -4.295,-46.342 -8.269,-69.255l-6.135,-18.762l-32.576,-24.907Z" style="fill:#565661;fill-rule:nonzero;"/><path d="M204.984,463.38c0,0 7.276,-74.712 -4.654,-101.666c-10.377,-23.491 29.754,-12.506 40.224,-9.305c1.621,0.5 3.035,1.541 4.018,2.96c6.205,9.001 28.466,45.077 21.904,93.346c0,0 -2.645,42.988 13.891,49.805l-50.951,-16.93c-4.134,-1.376 -8.33,-2.52 -12.565,-3.512c-5.398,-1.264 -14.194,-4.857 -11.867,-14.698Z" style="fill:#fff;fill-rule:nonzero;"/><path d="M517.236,329.718c0,0 -3.56,17.106 12.286,19.13l0.985,-1.896c0,0 -12.286,-11.913 -13.271,-17.234Z" style="fill:#4285f4;fill-rule:nonzero;"/><path d="M535.541,346.816l-3.685,0.8l-0.364,0.088c0,0 -9.835,-8.233 -9.711,-26.611c1.307,2.705 2.865,5.272 4.654,7.665c3.94,5.353 8.369,12.417 9.106,18.058Z" style="fill:#4285f4;fill-rule:nonzero;"/><path d="M536.789,348.584c-0.588,0.392 -1.319,0.489 -1.985,0.264c-9.463,-2.28 -6.259,-34.075 -6.259,-34.075c0.519,0.248 1.093,4.288 3.265,9.513c3.824,9.177 8.028,21.994 4.979,24.298Z" style="fill:#4285f4;fill-rule:nonzero;"/><path d="M557.77,329.718c0,0 0.613,17.106 -15.233,19.13l-0.977,-1.896c0,0 15.225,-11.913 16.21,-17.234Z" style="fill:#4285f4;fill-rule:nonzero;"/><path d="M553.225,321.101c0.124,18.378 -12.612,26.611 -12.612,26.611l-0.364,-0.088l-3.684,-0.8c0.729,-5.641 5.165,-12.737 9.051,-18.05c2.194,-2.896 4.752,-5.477 7.609,-7.673Z" style="fill:#4285f4;fill-rule:nonzero;"/><path d="M540.148,346.912c-0.571,0.714 -1.292,1.283 -2.11,1.664c-0.249,0.116 -0.509,0.205 -0.775,0.264c-2.327,0.56 -3.103,-1.168 -3.01,-4.112c0.217,-5.241 3.413,-14.322 6.275,-21.115c2.063,-4.896 5.429,-8.608 5.941,-8.848c0,0.008 -0.139,24.762 -6.321,32.147Z" style="fill:#4285f4;fill-rule:nonzero;"/><path d="M537.511,303.619c0,0 -10.564,38.644 -1.474,44.469c9.09,5.825 3.801,-41.052 1.474,-44.469Z" style="fill:#4285f4;fill-rule:nonzero;"/><path d="M517.236,329.718c0,0 -3.56,17.106 12.286,19.13l0.985,-1.896c0,0 -12.286,-11.913 -13.271,-17.234Z" style="fill-opacity:0.1;fill-rule:nonzero;"/><path d="M535.541,346.816l-3.685,0.8l-0.364,0.088c0,0 -9.835,-8.233 -9.711,-26.611c1.307,2.705 2.865,5.272 4.654,7.665c3.94,5.353 8.369,12.417 9.106,18.058Z" style="fill-opacity:0.1;fill-rule:nonzero;"/><path d="M536.789,348.584c-0.588,0.392 -1.319,0.489 -1.985,0.264c-9.463,-2.28 -6.259,-34.075 -6.259,-34.075c0.519,0.248 1.093,4.288 3.265,9.513c3.824,9.177 8.028,21.994 4.979,24.298Z" style="fill-opacity:0.1;fill-rule:nonzero;"/><path d="M557.77,329.718c0,0 0.613,17.106 -15.233,19.13l-0.977,-1.896c0,0 15.225,-11.913 16.21,-17.234Z" style="fill-opacity:0.1;fill-rule:nonzero;"/><path d="M553.225,321.101c0.124,18.378 -12.612,26.611 -12.612,26.611l-0.364,-0.088l-3.684,-0.8c0.729,-5.641 5.165,-12.737 9.051,-18.05c2.194,-2.896 4.752,-5.477 7.609,-7.673Z" style="fill-opacity:0.1;fill-rule:nonzero;"/><path d="M540.148,346.912c-0.571,0.714 -1.292,1.283 -2.11,1.664c-0.249,0.116 -0.509,0.205 -0.775,0.264c-2.327,0.56 -3.103,-1.168 -3.01,-4.112c0.217,-5.241 3.413,-14.322 6.275,-21.115c2.063,-4.896 5.429,-8.608 5.941,-8.848c0,0.008 -0.139,24.762 -6.321,32.147Z" style="fill-opacity:0.1;fill-rule:nonzero;"/><path d="M537.511,303.619c0,0 -10.564,38.644 -1.474,44.469c9.09,5.825 3.801,-41.052 1.474,-44.469Z" style="fill-opacity:0.1;fill-rule:nonzero;"/><path d="M517.236,329.718c0,0 -2.087,17.106 13.76,19.13l0.985,-1.896c0,0 -13.76,-11.913 -14.745,-17.234Z" style="fill:#4285f4;fill-rule:nonzero;"/><path d="M537.014,346.816l-3.684,0.8l-0.364,0.088c0,0 -11.309,-8.233 -11.185,-26.611c0,0 2.901,3.201 6.166,7.665c3.902,5.353 8.331,12.417 9.067,18.058Z" style="fill:#4285f4;fill-rule:nonzero;"/><path d="M537.014,346.816l-3.684,0.8c-3.49,-3.16 -4.879,-11.417 -5.383,-18.858c3.902,5.353 8.331,12.417 9.067,18.058Z" style="fill-opacity:0.1;fill-rule:nonzero;"/><path d="M538.286,348.584c-0.588,0.392 -1.319,0.489 -1.985,0.264c-9.463,-2.28 -7.756,-34.075 -7.756,-34.075c0.519,0.248 2.567,4.288 4.739,9.513c3.823,9.177 8.012,21.994 5.002,24.298Z" style="fill:#4285f4;fill-rule:nonzero;"/><path d="M557.77,329.718c0,0 2.087,17.106 -13.759,19.13l-0.978,-1.896c0,0 13.752,-11.913 14.737,-17.234Z" style="fill:#4285f4;fill-rule:nonzero;"/><path d="M553.225,321.101c0.124,18.402 -11.177,26.611 -11.177,26.611l-0.364,-0.088l-3.685,-0.8c0.73,-5.641 5.166,-12.737 9.052,-18.05c3.281,-4.472 6.174,-7.673 6.174,-7.673Z" style="fill:#4285f4;fill-rule:nonzero;"/><path d="M547.051,328.766c-0.473,6.937 -1.699,14.578 -4.654,18.154c-0.209,0.25 -0.434,0.486 -0.675,0.704l-3.684,-0.8c0.691,-5.649 5.127,-12.713 9.013,-18.058Z" style="fill-opacity:0.1;fill-rule:nonzero;"/><path d="M541.622,346.912c-0.571,0.714 -1.293,1.283 -2.11,1.664c-0.249,0.116 -0.509,0.205 -0.776,0.264c-2.327,0.56 -3.141,-1.168 -3.009,-4.112c0.217,-5.241 3.413,-14.322 6.275,-21.115c2.063,-4.896 3.971,-8.608 4.467,-8.848c0,0.008 1.334,24.762 -4.847,32.147Z" style="fill:#4285f4;fill-rule:nonzero;"/><path d="M538.286,348.584c-0.536,-0.001 -1.059,-0.175 -1.497,-0.496c-4.452,-2.856 -4.537,-13.601 -3.482,-23.802c3.8,9.177 7.989,21.994 4.979,24.298Z" style="fill-opacity:0.1;fill-rule:nonzero;"/><path d="M541.622,346.912c-0.512,1.136 -1.203,1.744 -2.11,1.664c-0.452,-0.065 -0.884,-0.235 -1.264,-0.496c-1.156,-0.819 -2.036,-1.992 -2.513,-3.352c0.217,-5.241 3.412,-14.322 6.274,-21.115c1.016,9.441 1.358,19.435 -0.387,23.299Z" style="fill-opacity:0.1;fill-rule:nonzero;"/><path d="M537.511,303.619c0,0 -9.091,38.644 0,44.469c9.09,5.825 2.327,-41.052 0,-44.469Z" style="fill:#4285f4;fill-rule:nonzero;"/><path d="M551.759,349.992l-0.636,3.417l-2.311,12.545l-21.997,0l-2.311,-12.545l-0.636,-3.417l27.891,0Z" style="fill:#565661;fill-rule:nonzero;"/><path d="M551.759,349.992l-0.636,3.417l-26.619,0l-0.636,-3.417l27.891,0Z" style="fill-opacity:0.1;fill-rule:nonzero;"/><rect x="518.593" y="346.192" width="37.827" height="6.465" style="fill:#565661;"/><path d="M428.714,358.601l-20.733,1.72l-29.543,-1.984l0.511,-0.048l27.365,-2.72c6.267,-2.4 1.923,-16.362 1.923,-16.362l20.942,1.104l1.668,0.088c7.453,17.938 -2.133,18.202 -2.133,18.202Z" style="fill:#d1d9ec;fill-rule:nonzero;"/><path d="M428.714,358.601l-20.733,1.72l-29.543,-1.984l0.511,-0.048l29.862,1.104l20.011,-2.24c5.678,-1.544 2.428,-11.713 0.38,-16.842l1.668,0.088c7.43,17.938 -2.156,18.202 -2.156,18.202Z" style="fill-opacity:0.1;fill-rule:nonzero;"/><path d="M464.99,231.548l-6.337,93.762l-0.83,12.313c-0.192,2.797 -2.486,4.988 -5.205,4.968l-1.923,0l-95.402,-0.6c-1.461,-0.01 -2.658,-1.253 -2.658,-2.76c0,-0.09 0.004,-0.181 0.013,-0.272l0.822,-8.313l6.709,-68.055c0.218,-2.195 1.652,-4.069 3.669,-4.8l90.927,-32.476c3.102,-1.104 6.205,-0.712 8.214,0.976c1.475,1.296 2.227,3.272 2.001,5.257Z" style="fill:#4c4c56;fill-rule:nonzero;"/><path d="M458.653,325.31l-0.83,12.313c-0.192,2.797 -2.486,4.988 -5.205,4.968l-1.923,0l-95.402,-0.6c-1.461,-0.01 -2.658,-1.253 -2.658,-2.76c0,-0.09 0.004,-0.181 0.013,-0.272l0.822,-8.313l105.183,-5.336Z" style="fill:#dfe6f5;fill-rule:nonzero;"/><ellipse cx="394.695" cy="335.519" rx="1.28" ry="2.64" style="fill:#fff;"/><path d="M441.395,361.69c0,0 26.092,-10.162 33.127,-2.769c0,0 1.148,2.24 -3.583,2.769l-19.119,1.6c0,0 -7.865,0.776 -10.425,-1.6Z" style="fill:#d1d9ec;fill-rule:nonzero;"/><path d="M442.109,359.049c5.127,-2.16 20.554,-7.753 30.428,-1.6c0,0 -10.929,-1.248 -16.925,2.328c-5.995,3.577 -14.201,1.881 -14.201,1.881l-0.117,-0.225c-0.131,-0.249 -0.2,-0.528 -0.2,-0.812c0,-0.685 0.402,-1.307 1.015,-1.572Z" style="fill:#dfe6f5;fill-rule:nonzero;"/><path d="M464.99,231.548l-7.167,106.091c-0.192,2.797 -2.486,4.988 -5.205,4.968l-1.923,0c1.322,-1.301 2.446,-2.801 3.335,-4.448c0.889,-1.647 7.035,-106.587 7.547,-109.228c0.228,-0.988 0.72,-1.892 1.419,-2.608c1.463,1.291 2.212,3.252 1.994,5.225Z" style="fill:#dfe6f5;fill-rule:nonzero;"/><path d="M464.99,231.548l-7.167,106.091c-0.192,2.797 -2.486,4.988 -5.205,4.968l-1.923,0c1.322,-1.301 2.446,-2.801 3.335,-4.448c0.889,-1.647 7.035,-106.587 7.547,-109.228c0.228,-0.988 0.72,-1.892 1.419,-2.608c1.463,1.291 2.212,3.252 1.994,5.225Z" style="fill-opacity:0.1;fill-rule:nonzero;"/><ellipse cx="115.516" cy="584.137" rx="75.577" ry="12.521" style="fill:#4285f4;fill-opacity:0.1;"/><rect x="113.08" y="344.264" width="4.863" height="112.948" style="fill:#535461;"/><path d="M148.511,456.868l-0.303,5.088l-0.434,7.201l-0.178,2.992l-0.427,7.201l-0.186,2.992l-0.434,7.201l-4.902,81.665c-0.44,7.252 -6.344,12.975 -13.388,12.977l-25.495,0c-7.04,-0.003 -12.939,-5.729 -13.371,-12.977l-4.918,-81.721l-0.426,-7.201l-0.179,-2.992l-0.442,-7.201l-0.178,-2.992l-0.427,-7.201l-0.31,-5.088c-0.008,-0.136 -0.011,-0.272 -0.011,-0.408c0,-3.937 3.129,-7.181 6.945,-7.201l52.138,0c3.814,0.022 6.941,3.266 6.941,7.201c0,0.154 -0.006,0.309 -0.015,0.464Z" style="fill:#565661;fill-rule:nonzero;"/><path d="M148.208,461.956l-0.434,7.177l-64.517,0l-0.434,-7.177l65.385,0Z" style="fill:#9d9cb5;fill-rule:nonzero;"/><path d="M147.596,472.133l-0.427,7.185l-63.299,0l-0.434,-7.185l64.16,0Z" style="fill:#9d9cb5;fill-rule:nonzero;"/><path d="M146.983,482.31l-0.434,7.177l-62.074,0l-0.426,-7.177l62.934,0Z" style="fill:#9d9cb5;fill-rule:nonzero;"/><path d="M75.393,386.596c28.325,21.138 40.123,54.198 40.123,54.198c0,0 -34.128,-1.208 -62.461,-22.347c-28.334,-21.138 -40.116,-54.189 -40.116,-54.189c0,0 34.135,1.208 62.454,22.338Z" style="fill:#4285f4;fill-rule:nonzero;"/><path d="M12.939,364.258c0,0 35.423,20.258 46.786,37.06c11.363,16.801 55.783,39.46 55.783,39.46" style="fill:none;fill-rule:nonzero;stroke:#535461;stroke-width:1.58px;"/><path d="M93.674,344.016c15.42,11.497 21.842,29.499 21.842,29.499c0,0 -18.615,-0.664 -33.996,-12.162c-15.381,-11.497 -21.795,-29.499 -21.795,-29.499c0,0 18.537,0.656 33.949,12.162Z" style="fill:#4285f4;fill-rule:nonzero;"/><path d="M59.725,331.854c0,0 19.282,11.042 25.464,20.178c6.181,9.137 30.366,21.483 30.366,21.483" style="fill:none;fill-rule:nonzero;stroke:#535461;stroke-width:1.58px;"/><path d="M137.916,372.595c-17.692,20.074 -21.454,46.325 -21.454,46.325c0,0 24.967,-6.321 42.659,-26.403c17.693,-20.082 21.454,-46.309 21.454,-46.309c0,0 -24.952,6.305 -42.659,26.387Z" style="fill:#4285f4;fill-rule:nonzero;"/><path d="M180.591,346.2c0,0 -23.067,20.578 -28.931,34.756c-5.864,14.177 -35.198,37.964 -35.198,37.964" style="fill:none;fill-rule:nonzero;stroke:#535461;stroke-width:1.58px;"/><path d="M635.131,125.657c-2.978,-3.129 -6.127,-6.609 -6.717,-11.138c-0.457,-3.504 0.776,-7.048 2.451,-10.041c1.676,-2.992 3.878,-5.6 5.732,-8.481c2.327,-3.704 4.095,-7.872 6.733,-11.329c4.072,-5.336 10.005,-8.553 16.102,-10.193c6.096,-1.64 12.41,-1.84 18.692,-2.032c5.026,-0.152 10.138,-0.288 14.993,1.16c3.552,1.056 6.864,2.936 10.13,4.801c4.584,2.632 9.222,5.352 12.922,9.369c3.647,4.007 6.186,8.95 7.353,14.313c1.318,5.897 0.938,12.417 -1.777,17.682c-1.211,2.182 -2.621,4.239 -4.211,6.145l-4.778,6.088c-0.997,1.397 -2.183,2.64 -3.522,3.689c-1.708,1.054 -3.6,1.755 -5.569,2.064c-13.382,2.93 -27.023,4.426 -40.704,4.464c-4.941,0 -8.936,-2.8 -13.489,-4.8c-5.553,-2.528 -10.036,-7.249 -14.341,-11.761Z" style="fill:#454b69;fill-rule:nonzero;"/><path d="M639.731,125.657c-2.824,-3.129 -5.81,-6.609 -6.376,-11.138c-0.427,-3.504 0.714,-7.048 2.327,-10.041c1.613,-2.992 3.7,-5.6 5.429,-8.481c2.226,-3.704 3.878,-7.872 6.384,-11.329c3.878,-5.336 9.493,-8.553 15.279,-10.193c5.787,-1.64 11.782,-1.84 17.724,-2.032c4.77,-0.152 9.61,-0.288 14.217,1.16c3.374,1.056 6.507,2.936 9.61,4.801c4.343,2.632 8.749,5.352 12.255,9.369c3.482,4.052 5.887,8.968 6.98,14.265c1.249,5.897 0.885,12.417 -1.683,17.682c-1.145,2.171 -2.482,4.228 -3.994,6.145l-4.538,6.088c-0.932,1.392 -2.055,2.637 -3.335,3.697c-1.608,1.049 -3.404,1.75 -5.282,2.064c-12.672,2.928 -25.617,4.425 -38.603,4.464c-4.654,0 -8.47,-2.8 -12.79,-4.8c-5.266,-2.488 -9.525,-7.209 -13.604,-11.721Z" style="fill-opacity:0.1;fill-rule:nonzero;"/><path d="M639.994,76.107c3.465,-3.794 7.126,-7.391 10.968,-10.777c5.685,-5.024 12.518,-9.905 20.624,-10.233c4.885,-0.058 9.701,1.211 13.961,3.681c4.18,2.312 7.756,5.328 11.324,8.32l14.093,11.89c1.179,0.992 2.412,2.072 2.723,3.464c0.031,0.163 0.047,0.33 0.047,0.496c0,1.396 -1.113,2.544 -2.467,2.544l-0.008,0c-0.726,-0.1 -1.42,-0.374 -2.025,-0.8c-18.96,-10.535 -41.686,-11.183 -61.181,-1.744c-2.381,1.168 -6.981,5.393 -9.408,3.68c-3.467,-2.472 -0.76,-8.216 1.349,-10.521Z" style="fill:#454b69;fill-rule:nonzero;"/><path d="M697.119,122.576c-9.307,-2.296 -19.321,-2.224 -29.132,-2.128c-6.647,0.064 -13.574,0.176 -19.492,2.352c-4.056,1.496 -7.686,4.481 -6.918,7.705c0.767,3.224 5.196,5.057 9.183,6.513c8.532,3.12 17.7,6.32 27.147,5.416c9.788,-0.928 41.798,-14.265 19.212,-19.858Z" style="fill-opacity:0.1;fill-rule:nonzero;"/><path d="M647.184,124.817c-3.823,0 -4.816,5.504 -4.18,9.384c0.636,3.881 1.008,9.065 -2.521,10.57c-1.21,0.378 -2.479,0.514 -3.739,0.4c-8.531,0.04 -16.133,5.28 -23.144,10.313c-1.202,0.872 -2.467,1.808 -3.041,3.2c-0.419,1.016 -0.457,2.216 -1.148,3.048c-0.734,0.69 -1.649,1.143 -2.629,1.305c-8.289,2.674 -13.968,10.65 -13.961,19.61c-8.842,3.08 -14.892,13.065 -13.69,22.61c-6.474,2.176 -10.673,8.724 -10.083,15.722c-7.563,3.56 -11.006,14.233 -6.981,21.754c1.404,2.64 3.459,6.185 1.272,8.177c2.692,3.76 5.623,7.713 9.882,9.305c4.258,1.592 10.083,-0.528 10.781,-5.145c1.856,1.038 3.935,1.581 6.046,1.581c6.96,0 12.689,-5.908 12.689,-13.089c0,-0.469 -0.025,-0.939 -0.074,-1.405c6.485,-1.048 10.859,-9.137 8.393,-15.402l6.476,-2.96c-3.534,4.491 -4.006,10.806 -1.179,15.802c0.667,0.891 1.148,1.915 1.412,3.008c0.248,1.928 -1.226,3.576 -2.327,5.192c-2.798,4.427 -2.888,10.14 -0.233,14.658c0.776,1.312 1.846,2.576 1.916,4.12c0.078,1.841 -1.249,3.377 -2.117,4.985c-3.879,7.161 1.481,15.706 6.538,22.002c-6.375,6.521 -3.676,18.594 3.397,24.299c7.074,5.704 16.746,6.457 25.705,5.816c8.958,-0.64 17.971,-2.4 26.836,-0.952c4.654,0.8 9.106,2.449 13.76,3.081c7.989,1.088 16.086,-0.928 23.672,-3.729c4.111,-1.52 8.532,-3.64 10.262,-7.768c1.954,-4.641 -0.171,-9.938 -0.264,-14.994c-0.14,-7.585 4.336,-14.474 5.274,-22.002c0.574,-4.609 -0.194,-9.257 -0.775,-13.858c-1.644,-13.024 -1.777,-26.203 -0.396,-39.26l2.327,3.648c0.087,0.013 0.176,0.02 0.264,0.02c1.013,0 1.846,-0.86 1.846,-1.904c0,-0.017 0,-0.034 0,-0.052c0.457,4.977 -2.994,11.529 1.163,14.106c1.225,0.8 2.738,0.8 4.126,1.128c2.63,0.792 4.885,2.559 6.329,4.96c2.172,3.345 3.103,7.473 5.631,10.577c2.529,3.105 7.687,4.609 10.138,1.465c7.553,0.12 14.881,-2.692 20.523,-7.873c-1.295,-1.608 -1.879,-3.705 -1.606,-5.777c4.724,0.064 6.71,-6.721 4.964,-11.257c-1.745,-4.537 -5.545,-8.001 -7.259,-12.529c-1.552,-4.105 -1.373,-9.001 -4.049,-12.442c-1.264,-1.64 -3.103,-2.768 -4.274,-4.464c-1.466,-2.072 -1.846,-4.721 -2.544,-7.201c-1.917,-6.677 -6.285,-12.326 -12.17,-15.738c1.715,-8.248 -3.878,-16.545 -11.836,-18.61c-0.912,-0.168 -1.804,-0.436 -2.66,-0.8c-2.893,-1.488 -3.436,-5.424 -5.173,-8.24c-2.769,-4.497 -8.424,-5.849 -13.504,-6.809l-15.342,-2.929c-0.897,-0.084 -1.754,-0.424 -2.474,-0.984c-0.608,-0.675 -0.974,-1.545 -1.04,-2.464c-0.636,-4.584 1.552,-9.169 1.21,-13.785c-0.116,-1.384 -0.713,-3.017 -2.039,-3.249c-0.719,-0.042 -1.433,0.133 -2.056,0.504c-5.37,2.359 -10.929,4.233 -16.614,5.601c-4.166,1.203 -8.437,1.975 -12.751,2.304c-8.268,0.416 -16.288,-1.52 -22.959,-6.584Z" style="fill:#454b69;fill-rule:nonzero;"/><path d="M707.148,82.932c2.226,-1.6 4.514,-3.328 6.058,-5.969c1.543,-2.64 2.14,-6.496 0.775,-9.257c1.839,3.265 3.483,7.009 3.413,11.058c-0.07,4.048 -2.466,8.233 -5.592,8.169c2.327,-0.201 4.84,-0.497 6.6,-2.481c1.761,-1.984 2.079,-6.288 0,-7.705c1.943,2.269 2.816,5.312 2.382,8.305c-0.427,3.049 -2.195,5.721 -4.46,6.721c1.985,-5.345 7.756,-7.585 11.712,-4.52c-3.693,1.705 -6.696,4.689 -8.486,8.432c2.397,-1.848 5.732,-3.568 7.687,-1c-3.778,0.8 -7.26,3.713 -9.308,7.897c3.902,-0.52 7.844,-0.624 11.767,-0.312c-4.348,1.109 -8.172,3.782 -10.782,7.537c2.868,0.84 5.677,1.88 8.408,3.112c-2.231,1.196 -4.734,1.75 -7.244,1.6c4.653,3.473 7.973,9.745 8.795,16.602c-1.608,-1.638 -3.411,-3.058 -5.367,-4.224c-1.551,-0.904 -3.366,-1.6 -4.832,-0.544c-1.466,1.056 -1.59,4.592 0.062,5.016l-6.733,-0.504c2.309,1.687 3.82,4.305 4.158,7.201c-1.302,-0.105 -2.561,-0.524 -3.677,-1.224c2.899,2.71 5.103,6.119 6.415,9.921c-2.761,-2.224 -5.74,-4.529 -8.99,-4.441c-2.381,0.064 -4.653,1.417 -6.98,1.833c-4.189,0.744 -8.625,-1.761 -11.061,-6.241c2.844,-0.445 5.744,-0.299 8.532,0.432c-0.465,-3.189 -1.28,-6.314 -2.428,-9.313c1.595,1.079 2.979,2.458 4.08,4.064c0.457,-4.209 0.373,-8.462 -0.248,-12.649l3.537,3.784c-0.343,-2.814 -0.969,-5.584 -1.869,-8.264c1.743,3.404 4.072,6.454 6.872,9.001l-5.22,-9.313l8.617,6.432c0.892,-0.744 0.217,-2.544 -0.535,-3.512c-2.31,-2.989 -5.006,-5.638 -8.013,-7.873c2.368,0.374 4.676,1.083 6.857,2.104c-0.939,-5.008 -5.018,-8.681 -8.974,-8.073c2.913,-1.796 6.162,-2.936 9.532,-3.344c-3.374,-2.712 -7.756,-5.417 -11.052,-2.48c3.153,-0.771 6.199,-1.948 9.067,-3.505c-1.709,-2.167 -4.649,-2.866 -7.105,-1.688c-2.327,1.208 -4.095,4.241 -4.297,7.513c-0.116,-4.704 2.614,-9.273 6.205,-10.321c-1.388,-0.728 -2.831,-1.472 -4.328,-1.352c-1.697,0.188 -3.055,1.572 -3.257,3.32c0.418,-2.938 1.374,-5.766 2.815,-8.337c-1.97,-1.064 -4.351,0.48 -5.429,2.857c-1.078,2.376 -1.117,5.32 -0.776,8.048c0.337,-5.879 0.078,-11.778 -0.776,-17.601c-0.903,4.588 -1.185,9.285 -0.837,13.953" style="fill:#4285f4;fill-rule:nonzero;"/><rect x="670.135" y="131.401" width="5.259" height="191.036" style="fill:#fff;fill-opacity:0.2;"/><ellipse cx="719.612" cy="592.202" rx="123.356" ry="27.915" style="fill:#4285f4;fill-opacity:0.1;"/><rect x="732.131" y="73.211" width="9.083" height="541.489" style="fill:#565661;"/><ellipse cx="736.676" cy="105.991" rx="40.852" ry="6.809" style="fill:none;stroke:#565661;stroke-width:7.09px;"/><path d="M682.817,70.323c-7.503,1.92 -12.814,8.923 -12.814,16.898c0,4.538 1.721,8.903 4.794,12.153c4.754,5.032 11.867,6.617 18.498,8.217c12.728,3.072 26.372,7.889 33.259,19.338c4.413,7.454 5.307,16.589 2.428,24.802c-0.648,2.017 -1.721,3.862 -3.141,5.401c-1.794,1.612 -3.913,2.791 -6.205,3.448c-10.31,3.523 -21.401,3.829 -31.879,0.88" style="fill:none;fill-rule:nonzero;stroke:#565661;stroke-width:7.09px;"/><path d="M789.085,70.323c7.5,1.926 12.806,8.929 12.806,16.902c0,4.536 -1.718,8.898 -4.786,12.149c-4.754,5.032 -11.867,6.617 -18.498,8.217c-12.729,3.072 -26.372,7.889 -33.259,19.338c-4.413,7.454 -5.307,16.589 -2.428,24.802c0.637,2.014 1.696,3.858 3.102,5.401c1.794,1.612 3.913,2.791 6.205,3.448c10.31,3.523 21.402,3.829 31.879,0.88" style="fill:none;fill-rule:nonzero;stroke:#565661;stroke-width:7.09px;"/><ellipse cx="736.676" cy="421.856" rx="37.967" ry="11.065" style="fill:none;stroke:#565661;stroke-width:7.09px;"/><ellipse cx="736.676" cy="560.911" rx="37.967" ry="11.065" style="fill:none;stroke:#565661;stroke-width:7.09px;"/><path d="M699.865,425.224c14.838,14.499 25.133,33.254 29.551,53.838c0.853,3.768 1.372,7.608 1.552,11.473c0.294,8.801 -1.87,17.538 -4.654,25.883c-5.251,15.794 -13.054,31.139 -25.293,42.052c-10.983,9.793 -24.82,15.418 -38.588,20.17" style="fill:none;fill-rule:nonzero;stroke:#565661;stroke-width:7.09px;"/><path d="M773.48,425.224c-14.838,14.499 -25.133,33.254 -29.552,53.838c-0.849,3.768 -1.368,7.609 -1.551,11.473c-0.295,8.801 1.869,17.538 4.654,25.883c5.243,15.794 13.046,31.139 25.293,42.052c10.975,9.793 24.82,15.418 38.58,20.17" style="fill:none;fill-rule:nonzero;stroke:#565661;stroke-width:7.09px;"/><rect x="652.079" y="66.01" width="20.12" height="8.489" style="fill:#454b69;"/><path d="M695.932,91.837l-4.072,-11.721c-0.369,-1.372 -1.037,-2.64 -1.954,-3.705c-0.962,-0.92 -2.521,-1.136 -3.366,-0.056c1.403,1.953 2.516,4.11 3.304,6.401c0.706,2.4 0.706,5.185 -0.512,7.201c-0.653,-6.717 -3.447,-13.024 -7.943,-17.93c1.623,3.431 2.956,6.999 3.987,10.665l-5.546,-6.729c-1.192,5.096 -1.165,10.415 0.078,15.498c-3.044,-3.89 -4.741,-8.723 -4.817,-13.721c-0.042,2.121 -0.46,4.218 -1.233,6.184c-1.534,-1.84 -2.362,-4.198 -2.327,-6.625c-2.887,4.549 -3.702,10.182 -2.226,15.402c-2.659,-4.476 -4.101,-9.609 -4.173,-14.857c-1.674,5.271 -2.139,10.873 -1.357,16.361c-3.172,-3.628 -5.119,-8.223 -5.546,-13.089c0.108,4.992 0.891,9.945 2.327,14.713c-2.567,-0.744 -4.002,-3.88 -5.367,-6.576c-1.365,-2.697 -3.522,-5.529 -6.135,-5.041c2.425,2.745 3.892,6.25 4.165,9.953c-1.265,-0.176 -2.219,-1.52 -3.46,-1.832c-1.752,-0.432 -3.521,1.728 -3.242,3.824c0.28,2.097 2.366,3.505 4.065,2.857c-2.443,-1.036 -5.265,-0.451 -7.128,1.48c-1.998,2.165 -2.893,5.18 -2.413,8.129c1.009,-3.025 4.057,-4.857 6.702,-4.001c-4.057,0.608 -7.477,4.969 -7.756,9.817c0.992,-0.712 1.465,-2.096 2.28,-3.072c0.814,-0.976 2.451,-1.328 2.94,-0.08c0.166,0.615 0.149,1.267 -0.047,1.872l-2.071,9.329l10.533,-4.744c-0.668,4.414 -1.995,8.694 -3.932,12.689l5.956,-2.016c-2.505,2.695 -4.19,6.089 -4.847,9.761c0.613,-3.28 4.716,-5.945 7.275,-5.793c0.497,5.113 -2.04,8.849 -6.205,9.153c-5.949,0.44 -11.293,-0.624 -17.188,1.528c2.367,-3.484 6.426,-5.336 10.518,-4.8c-3.002,-4.329 -8.377,-6.073 -12.814,-4.145c1.671,-2.529 4.48,-4.014 7.446,-3.936c-2.032,-3.488 -6.352,-4.728 -9.501,-2.728c1.239,-2.424 3.25,-4.335 5.693,-5.409c-2.249,-2.048 -5.429,-2.208 -8.113,-1.248c-2.684,0.96 -5.096,2.896 -7.423,4.801c-0.813,-2.414 -0.341,-5.099 1.241,-7.065c1.49,-1.753 3.965,-2.237 5.973,-1.168c-0.962,-2.961 -3.716,-4.937 -6.361,-4.577c1.615,-2.398 4.612,-3.387 7.276,-2.4c0.102,-3.763 -1.457,-7.377 -4.235,-9.817c1.996,0.591 3.752,1.835 5.003,3.544c0.595,-2.76 0.065,-5.655 -1.466,-8.001c-1.482,-2.144 -3.283,-4.034 -5.337,-5.6c4.082,-1.275 8.442,-1.253 12.511,0.064l-3.568,-13.089l7.191,9.328c-0.814,-4.751 -1.054,-9.589 -0.714,-14.401c0.932,3.42 2.354,6.678 4.219,9.665c-0.537,-4.388 -0.843,-8.803 -0.915,-13.225c0,-1.129 0.078,-2.481 0.908,-3.033c0.83,-0.552 1.753,0 2.326,0.8c0.48,0.881 0.823,1.834 1.017,2.825c0.839,3.109 2.499,5.918 4.793,8.113c0.076,-4.623 2.051,-9.003 5.429,-12.042c0.051,3.562 0.518,7.106 1.389,10.553c-2.327,-0.152 -3.622,-3.616 -2.932,-6.24c0.69,-2.625 2.676,-4.441 4.654,-5.865c1.977,-1.424 4.11,-2.72 5.507,-4.904c-0.472,5.121 -0.136,10.287 0.992,15.297c0.729,-3.456 0.683,-7.113 1.621,-10.497c0.939,-3.384 3.328,-6.625 6.314,-6.521c-1.239,1.802 -2.204,3.787 -2.862,5.889c-0.582,2.168 -0.489,4.729 0.713,6.505c0.427,-3.201 0.869,-6.489 2.071,-9.417c1.203,-2.929 3.281,-5.521 5.949,-6.257c-1.519,5.447 -1.121,11.277 1.125,16.45c0,-4.657 1.257,-9.905 4.755,-12.001c-1.625,2.754 -1.981,6.117 -0.97,9.168c-0.098,-4.314 0.977,-8.572 3.103,-12.289c-0.003,5.4 0.87,10.763 2.583,15.866c2.022,-4.489 4.828,-8.558 8.275,-12.001c-0.781,5.135 -0.281,10.392 1.451,15.273c-0.209,-2.242 -0.12,-4.503 0.264,-6.721c0.488,-2.176 1.683,-4.256 3.459,-5.032l0.333,15.122c3.747,-2.193 5.011,-8.801 2.444,-12.698c3.025,1.856 6.205,3.913 7.872,7.449c1.668,3.536 0.877,8.985 -2.327,10.273" style="fill:#4285f4;fill-rule:nonzero;"/><path d="M677.511,75.715c0,-4.42 -3.478,-8.009 -7.764,-8.009l-4.638,0c-4.285,0 -7.764,3.589 -7.764,8.009c0,4.421 3.479,8.009 7.764,8.009l4.638,0c4.286,0 7.764,-3.588 7.764,-8.009Z" style="fill:#4285f4;"/></g><defs><linearGradient id="_Linear1" x1="0" y1="0" x2="1" y2="0" gradientUnits="userSpaceOnUse" gradientTransform="matrix(1.05485,0,0,1.08811,233.147,147.499)"><stop offset="0" style="stop-color:#808080;stop-opacity:0.25"/><stop offset="0.54" style="stop-color:#808080;stop-opacity:0.12"/><stop offset="1" style="stop-color:#808080;stop-opacity:0.1"/></linearGradient><linearGradient id="_Linear2" x1="0" y1="0" x2="1" y2="0" gradientUnits="userSpaceOnUse" gradientTransform="matrix(5.98008,0,0,6.16865,234.202,147.923)"><stop offset="0" style="stop-color:#808080;stop-opacity:0.25"/><stop offset="0.54" style="stop-color:#808080;stop-opacity:0.12"/><stop offset="1" style="stop-color:#808080;stop-opacity:0.1"/></linearGradient><linearGradient id="_Linear3" x1="0" y1="0" x2="1" y2="0" gradientUnits="userSpaceOnUse" gradientTransform="matrix(1.79945,0,0,1.8562,328.41,435.857)"><stop offset="0" style="stop-color:#808080;stop-opacity:0.25"/><stop offset="0.54" style="stop-color:#808080;stop-opacity:0.12"/><stop offset="1" style="stop-color:#808080;stop-opacity:0.1"/></linearGradient></defs></svg>